<?xml version="1.0" encoding="UTF-8"?>
<svg xmlns="http://www.w3.org/2000/svg" xmlns:xlink="http://www.w3.org/1999/xlink" width="33px" height="31px" viewBox="0 0 33 31" version="1.1">
<g id="surface1">
<path style=" stroke:none;fill-rule:nonzero;fill:rgb(0%,0%,0%);fill-opacity:1;" d="M 24.785156 1.007812 C 24.789062 1.007812 24.996094 1.039062 25 1.039062 C 25.003906 1.078125 25.007812 1.113281 25.011719 1.152344 C 25.441406 0.96875 25.445312 1.398438 25.457031 1.660156 C 30.539062 1.40625 30.011719 2.414062 26.632812 2.972656 C 26.234375 3.039062 25.835938 3.089844 25.433594 3.136719 C 25.460938 3.273438 25.546875 3.226562 25.570312 3.777344 C 25.601562 3.757812 25.632812 3.730469 25.671875 3.730469 C 25.710938 3.753906 25.703125 3.773438 25.539062 4.207031 C 25.539062 4.371094 25.554688 4.535156 25.558594 4.699219 C 25.53125 4.707031 25.507812 4.714844 25.480469 4.722656 C 25.527344 6.019531 25.570312 7.3125 25.613281 8.609375 C 26.054688 8.621094 26.261719 8.550781 26.265625 8.902344 C 26.566406 8.875 26.871094 8.867188 27.171875 8.859375 C 27.523438 8.847656 27.875 8.839844 28.222656 8.832031 C 28.222656 8.78125 28.222656 8.726562 28.222656 8.675781 C 28.253906 8.664062 28.285156 8.652344 28.3125 8.640625 C 28.316406 8.613281 28.320312 8.582031 28.324219 8.550781 C 28.304688 8.535156 28.285156 8.523438 28.269531 8.507812 C 28.28125 8.492188 28.289062 8.476562 28.300781 8.460938 C 28.289062 8.4375 28.28125 8.417969 28.269531 8.394531 C 28.28125 8.382812 28.296875 8.371094 28.3125 8.363281 C 28.285156 8.328125 28.269531 8.285156 28.265625 8.246094 C 28.210938 8.25 28.160156 8.269531 28.113281 8.292969 C 28.0625 8.472656 27.855469 8.597656 27.902344 8.292969 C 27.921875 8.152344 28.019531 7.898438 28.039062 7.871094 C 28.0625 7.851562 28.101562 7.839844 28.125 7.863281 C 28.195312 7.941406 28.101562 8.097656 28.28125 8.070312 C 28.300781 7.890625 28.269531 7.882812 28.414062 7.875 C 28.507812 5.324219 28.570312 5.316406 28.535156 7.886719 C 28.589844 7.890625 28.636719 7.90625 28.683594 7.929688 C 28.664062 7.941406 28.644531 7.953125 28.628906 7.964844 C 28.707031 8.089844 28.613281 8.304688 28.644531 8.417969 C 28.605469 8.433594 28.558594 8.445312 28.542969 8.492188 C 28.578125 8.503906 28.617188 8.515625 28.65625 8.527344 C 28.636719 8.535156 28.621094 8.542969 28.605469 8.554688 C 28.601562 8.582031 28.597656 8.613281 28.59375 8.640625 C 28.621094 8.664062 28.644531 8.6875 28.671875 8.710938 C 28.667969 8.757812 28.664062 8.808594 28.660156 8.855469 C 32.691406 9.019531 32.976562 10.089844 28.917969 10.027344 C 28.917969 10.09375 28.917969 10.164062 28.917969 10.230469 C 28.804688 10.351562 28.859375 10.316406 28.765625 10.34375 C 28.734375 10.382812 28.6875 10.402344 28.636719 10.410156 C 28.617188 10.527344 28.617188 10.644531 28.605469 10.757812 C 28.582031 10.765625 28.558594 10.773438 28.539062 10.78125 C 28.5 12.273438 28.460938 13.769531 28.425781 15.261719 C 28.457031 15.269531 28.503906 15.265625 28.523438 15.300781 C 28.535156 15.359375 28.53125 15.417969 28.539062 15.476562 C 28.621094 15.492188 28.71875 15.492188 28.789062 15.550781 C 28.777344 15.667969 28.777344 15.789062 28.773438 15.90625 C 28.695312 15.921875 28.617188 15.933594 28.539062 15.949219 C 28.539062 16.078125 28.539062 16.210938 28.503906 16.335938 C 28.496094 16.371094 28.472656 16.402344 28.449219 16.425781 C 28.425781 17.425781 28.402344 18.421875 28.378906 19.417969 C 28.628906 19.457031 28.683594 19.492188 28.664062 19.609375 C 28.734375 19.664062 29.386719 21.589844 29.410156 21.65625 C 29.460938 21.679688 29.515625 21.679688 29.445312 21.851562 C 29.453125 21.867188 30.09375 23.363281 30.171875 23.945312 C 30.324219 23.992188 30.28125 23.992188 30.351562 24.222656 C 30.339844 24.230469 30.328125 24.242188 30.320312 24.253906 C 30.320312 24.265625 30.328125 24.28125 30.332031 24.296875 C 30.328125 24.300781 30.316406 24.3125 30.3125 24.320312 C 30.324219 24.335938 30.332031 24.351562 30.34375 24.371094 C 30.328125 24.410156 30.359375 24.441406 30.382812 24.464844 C 30.390625 24.515625 30.410156 24.574219 30.386719 24.625 C 30.269531 24.816406 29.660156 24.753906 29.867188 24.496094 C 29.875 24.46875 29.851562 24.453125 29.84375 24.433594 C 29.859375 24.414062 29.863281 24.390625 29.855469 24.367188 C 29.863281 24.355469 29.875 24.347656 29.882812 24.339844 C 29.867188 24.289062 29.769531 24.238281 29.949219 24.113281 C 29.925781 23.730469 29.390625 22.328125 29.253906 21.976562 C 29.214844 21.984375 29.179688 21.996094 29.140625 22.007812 C 29.371094 23.082031 29.597656 24.15625 29.824219 25.230469 C 30.957031 25.917969 31.15625 25.972656 31.304688 26.25 C 31.503906 26.195312 31.9375 26.789062 31.914062 26.8125 C 31.660156 27.074219 31.296875 27.1875 31.21875 26.835938 C 31.207031 26.824219 31.195312 26.8125 31.183594 26.804688 C 31.1875 26.796875 31.199219 26.785156 31.207031 26.78125 C 31.183594 26.761719 31.15625 26.746094 31.128906 26.738281 C 31.136719 26.726562 31.140625 26.714844 31.148438 26.703125 C 31.132812 26.675781 31.019531 26.648438 31.066406 26.488281 C 30.875 26.234375 30.203125 25.847656 29.925781 25.691406 C 29.949219 25.828125 29.96875 25.96875 29.992188 26.105469 C 30.152344 26.140625 30.125 26.25 30.148438 26.398438 C 30.132812 26.414062 30.117188 26.425781 30.109375 26.445312 C 30.109375 26.476562 30.144531 26.492188 30.164062 26.511719 C 30.152344 26.523438 30.125 26.53125 30.128906 26.554688 C 30.140625 26.574219 30.160156 26.589844 30.175781 26.605469 C 30.167969 26.609375 30.15625 26.617188 30.144531 26.625 C 30.160156 26.664062 30.1875 26.691406 30.214844 26.71875 C 30.226562 26.765625 30.242188 26.8125 30.246094 26.859375 C 30.222656 26.9375 29.992188 26.945312 29.914062 26.949219 C 29.746094 26.878906 29.652344 26.792969 29.6875 26.597656 C 29.734375 26.578125 29.722656 26.53125 29.707031 26.496094 C 29.75 26.472656 29.71875 26.429688 29.703125 26.398438 C 29.714844 26.390625 29.726562 26.382812 29.738281 26.375 C 29.722656 26.347656 29.703125 26.324219 29.675781 26.308594 C 29.667969 26.207031 29.695312 26.164062 29.800781 26.105469 C 29.78125 25.925781 29.757812 25.746094 29.734375 25.566406 C 29.449219 25.402344 29.160156 25.238281 28.875 25.070312 C 28.863281 25.167969 28.851562 25.265625 28.839844 25.363281 C 27.972656 25.59375 28.285156 25.519531 27.6875 25.558594 C 27.640625 25.585938 26.574219 26.34375 26.386719 26.480469 C 26.382812 26.507812 26.378906 26.539062 26.375 26.570312 C 26.257812 26.585938 26.140625 26.597656 26.019531 26.613281 C 25.957031 26.707031 25.867188 26.726562 25.707031 26.714844 C 25.703125 26.734375 25.675781 26.886719 25.601562 26.832031 C 25.589844 26.8125 25.578125 26.792969 25.566406 26.773438 C 25.527344 26.765625 25.511719 26.820312 25.480469 26.832031 C 25.449219 26.828125 25.425781 26.804688 25.40625 26.789062 C 25.429688 26.6875 25.339844 26.609375 25.269531 26.558594 C 25.097656 27.394531 24.925781 28.230469 24.753906 29.066406 C 24.851562 29.140625 24.847656 29.273438 24.832031 29.414062 C 24.777344 29.457031 24.773438 29.441406 24.792969 29.535156 C 24.785156 29.546875 24.773438 29.554688 24.769531 29.566406 C 24.769531 29.589844 24.785156 29.609375 24.792969 29.632812 C 24.742188 29.683594 24.734375 29.671875 24.796875 29.746094 C 24.78125 29.828125 24.796875 29.925781 24.730469 29.988281 L 24.730469 29.992188 L 24.710938 29.992188 C 24.53125 29.902344 24.21875 30.089844 24.359375 29.636719 C 24.378906 29.625 24.410156 29.625 24.421875 29.601562 C 24.421875 29.574219 24.410156 29.554688 24.398438 29.535156 C 24.414062 29.527344 24.429688 29.519531 24.441406 29.507812 C 24.453125 29.480469 24.429688 29.457031 24.421875 29.433594 C 24.4375 29.425781 24.460938 29.421875 24.472656 29.40625 C 24.484375 29.375 24.464844 29.34375 24.453125 29.316406 C 24.472656 29.167969 24.457031 29.078125 24.617188 29.042969 C 24.792969 28.195312 24.96875 27.347656 25.144531 26.503906 C 25.109375 26.488281 25.078125 26.472656 25.042969 26.457031 C 25.046875 26.402344 25.050781 26.34375 25.054688 26.289062 C 24.796875 26.019531 24.542969 25.746094 24.285156 25.476562 C 24.140625 25.496094 23.914062 25.464844 23.769531 25.441406 C 23.804688 25.511719 23.878906 25.855469 23.386719 25.726562 C 23.425781 25.390625 23.308594 25.644531 23.441406 24.960938 C 23.308594 24.875 23.253906 24.683594 23.21875 24.519531 C 21.03125 25.746094 21.160156 25.617188 21.027344 25.832031 C 21.144531 25.933594 20.898438 26.320312 20.722656 26.335938 C 20.730469 26.402344 20.738281 26.46875 20.746094 26.535156 C 20.769531 26.535156 20.796875 26.535156 20.824219 26.535156 C 20.84375 26.65625 20.859375 26.773438 20.878906 26.894531 C 20.980469 26.902344 21 26.902344 21.03125 26.996094 C 21.046875 26.988281 21.0625 26.980469 21.082031 26.976562 C 21.230469 26.078125 21.570312 27.480469 21.277344 27.429688 C 21.261719 27.421875 21.078125 27.167969 21.070312 27.15625 C 21.011719 27.296875 20.957031 27.261719 20.789062 27.324219 C 20.804688 27.449219 20.820312 27.570312 20.835938 27.695312 C 20.855469 27.695312 20.875 27.695312 20.898438 27.699219 C 20.988281 27.769531 21.359375 28.804688 21.148438 28.945312 C 20.480469 29.390625 20.351562 28.496094 20.566406 27.742188 C 20.585938 27.738281 20.601562 27.734375 20.621094 27.730469 C 20.597656 27.605469 20.578125 27.480469 20.554688 27.359375 C 20.511719 27.355469 20.472656 27.351562 20.429688 27.347656 C 20.394531 27.105469 20.355469 26.867188 20.320312 26.625 C 20.339844 26.609375 20.363281 26.597656 20.386719 26.582031 C 20.316406 26.101562 20.246094 25.621094 20.175781 25.140625 C 20.15625 25.128906 20.136719 25.117188 20.117188 25.105469 C 20.105469 25.015625 20.09375 24.925781 20.085938 24.835938 C 20.050781 24.871094 20.015625 24.902344 19.984375 24.9375 C 19.945312 24.914062 19.910156 24.890625 19.871094 24.871094 C 19.554688 25.316406 19.238281 25.761719 18.921875 26.210938 C 18.925781 26.222656 18.933594 26.238281 18.941406 26.253906 C 18.796875 26.4375 18.464844 26.945312 18.269531 26.71875 C 17.617188 27.398438 16.65625 27.933594 15.777344 28.222656 C 15.804688 28.539062 15.183594 28.636719 15.15625 28.335938 C 14.222656 28.566406 13.167969 28.425781 12.3125 28.078125 C 12.300781 28.101562 12.285156 28.125 12.269531 28.144531 C 12.164062 28.144531 12.058594 28.144531 11.957031 28.144531 C 11.875 28.058594 11.792969 27.972656 11.710938 27.886719 C 11.710938 27.851562 11.710938 27.820312 11.710938 27.785156 C 10.824219 27.378906 10.019531 26.644531 9.515625 25.929688 C 9.488281 25.941406 9.460938 25.957031 9.4375 25.972656 C 9.164062 25.867188 9.011719 25.617188 9.179688 25.433594 C 9.035156 25.222656 8.933594 24.988281 8.832031 24.757812 C 8.730469 25.089844 8.628906 25.425781 8.53125 25.757812 C 8.550781 25.761719 8.574219 25.765625 8.597656 25.769531 C 8.546875 26 8.5 26.226562 8.453125 26.457031 C 8.386719 26.457031 8.324219 26.457031 8.261719 26.457031 C 8.226562 26.570312 8.195312 26.679688 8.160156 26.792969 C 8.347656 26.890625 8.125 28.769531 7.445312 27.820312 C 7.425781 27.785156 7.402344 27.742188 7.414062 27.699219 C 7.542969 27.507812 7.753906 26.761719 7.949219 26.714844 C 7.980469 26.605469 8.007812 26.496094 8.039062 26.390625 C 7.867188 26.300781 8.03125 26.414062 7.601562 26.007812 C 7.609375 25.992188 7.617188 25.976562 7.625 25.960938 C 7.730469 25.992188 7.839844 26.023438 7.949219 26.050781 C 8.046875 25.960938 8.003906 26.0625 8.125 25.648438 C 8.152344 25.640625 8.179688 25.636719 8.207031 25.636719 C 8.300781 25.3125 8.390625 24.988281 8.484375 24.667969 C 8.113281 24.84375 7.984375 24.882812 7.21875 25.386719 C 7.214844 25.417969 7.210938 25.449219 7.207031 25.476562 C 6.625 25.457031 6.777344 25.585938 6.445312 25.546875 C 6.363281 25.597656 6.277344 25.652344 6.179688 25.660156 C 6.179688 25.636719 6.179688 25.613281 6.179688 25.589844 C 6.15625 25.601562 6.132812 25.613281 6.113281 25.625 C 6.09375 25.617188 6.074219 25.609375 6.054688 25.601562 C 6.050781 25.570312 6.046875 25.542969 6.042969 25.511719 C 5.722656 25.355469 5.402344 25.203125 5.082031 25.050781 C 3.722656 27.398438 3.832031 27.140625 3.613281 27.730469 C 3.769531 28.125 3.589844 27.871094 3.621094 28.085938 C 3.59375 28.113281 3.582031 28.097656 3.621094 28.171875 C 3.574219 28.199219 3.625 28.59375 3.355469 28.484375 C 3.117188 28.402344 2.984375 28.386719 2.980469 28.269531 C 2.984375 28.214844 3.011719 28.167969 3.03125 28.117188 C 3.097656 28.097656 3.101562 28.113281 3.113281 28.003906 C 3.128906 27.996094 3.144531 27.992188 3.15625 27.976562 C 3.160156 27.957031 3.152344 27.933594 3.148438 27.914062 C 3.1875 27.875 3.199219 27.894531 3.167969 27.804688 C 3.265625 27.621094 3.277344 27.546875 3.449219 27.570312 C 3.707031 26.945312 3.4375 27.46875 4.902344 24.890625 C 4.867188 24.808594 4.867188 24.734375 4.96875 24.65625 C 4.988281 24.660156 5.007812 24.667969 5.027344 24.679688 C 5.164062 24.429688 5.300781 24.183594 5.441406 23.933594 C 5.25 23.628906 5.082031 23.675781 4.902344 23.339844 C 3.601562 24.332031 3.660156 24.273438 3.632812 24.335938 C 3.609375 24.378906 3.597656 24.433594 3.625 24.476562 C 3.644531 24.507812 3.652344 24.546875 3.625 24.578125 C 3.570312 24.636719 3.5625 24.726562 3.574219 24.804688 C 3.59375 24.875 3.300781 24.914062 3.230469 24.863281 C 3.140625 24.796875 3.09375 24.6875 3.035156 24.59375 C 2.941406 24.453125 5.402344 22.28125 6.222656 22.3125 C 6.214844 21.234375 6.210938 20.15625 6.199219 19.082031 C 5.847656 19.011719 5.203125 18.855469 5.070312 18.515625 C 4.863281 22.148438 5.085938 21.457031 4.382812 22.296875 C 4.332031 22.355469 4.285156 22.417969 4.230469 22.46875 C 3.9375 22.757812 3.957031 23.039062 3.996094 23.4375 C 3.878906 23.550781 3.78125 23.503906 3.660156 23.398438 C 3.75 23.296875 3.757812 23.160156 3.773438 23.035156 C 3.789062 23.023438 3.808594 23.011719 3.828125 23 C 3.839844 22.929688 3.847656 22.859375 3.855469 22.789062 C 3.882812 22.675781 3.949219 22.574219 4.027344 22.488281 C 4.105469 22.398438 4.179688 22.308594 4.257812 22.21875 C 5.363281 20.972656 4.566406 19.441406 4.957031 18.191406 C 4.644531 18.042969 4.726562 18.019531 4.765625 17.675781 C 4.6875 17.578125 4.730469 17.5 4.8125 17.390625 C 4.8125 17.339844 4.8125 17.285156 4.8125 17.230469 C 4.691406 17.207031 4.683594 17.230469 4.652344 17.3125 C 4.589844 17.300781 4.527344 17.289062 4.464844 17.277344 C 4.445312 17.140625 4.476562 17 4.53125 16.875 C 4.597656 16.882812 4.660156 16.886719 4.722656 16.898438 C 4.722656 16.933594 4.722656 16.972656 4.722656 17.011719 C 5.105469 17.089844 5 16.992188 5.09375 13.945312 C 5.03125 13.941406 4.972656 13.9375 4.914062 13.933594 C 4.859375 13.808594 4.839844 13.652344 4.910156 13.527344 C 4.972656 13.53125 5.03125 13.527344 5.09375 13.527344 C 5.101562 13.320312 5.109375 13.109375 5.113281 12.898438 C 5.128906 12.886719 5.144531 12.875 5.160156 12.863281 C 5.175781 12.539062 5.199219 12.589844 5.101562 12.523438 C 5.085938 12.4375 5.101562 12.339844 5.167969 12.277344 C 5.1875 12.1875 5.171875 12.1875 5.273438 12.210938 C 5.292969 12.195312 5.308594 12.179688 5.328125 12.167969 C 5.351562 12.046875 5.1875 11.765625 6.28125 11.695312 C 6.308594 8.421875 6.421875 9.242188 5.964844 8.125 C 5.757812 8.121094 5.621094 7.671875 5.707031 7.515625 C 5.109375 6.097656 5.210938 5.96875 4.644531 6.09375 C 4.566406 6.089844 4.496094 6.023438 4.507812 5.941406 C 4.636719 5.863281 4.730469 5.765625 4.820312 5.808594 C 4.839844 5.796875 4.863281 5.78125 4.882812 5.769531 C 4.867188 5.46875 4.597656 5.722656 2.816406 4.570312 C -2.285156 1.238281 4.816406 1.871094 8.925781 4.863281 C 11.59375 6.769531 9.578125 7.46875 5.441406 5.882812 C 5.457031 5.941406 5.476562 6.003906 5.496094 6.0625 C 5.464844 6.085938 5.4375 6.109375 5.40625 6.128906 C 5.59375 6.546875 5.777344 6.964844 5.964844 7.378906 C 6.371094 7.265625 6.769531 7.195312 6.773438 7.617188 C 6.804688 7.613281 6.839844 7.609375 6.875 7.605469 C 6.910156 7.492188 6.949219 7.378906 6.984375 7.269531 C 7.023438 7.277344 7.058594 7.28125 7.097656 7.289062 C 7.164062 7.90625 7.167969 7.746094 7.085938 8.167969 C 7.058594 8.15625 7.035156 8.144531 7.007812 8.136719 C 6.964844 8.042969 6.925781 7.945312 6.882812 7.851562 C 6.847656 7.855469 6.808594 7.859375 6.773438 7.863281 C 6.769531 7.957031 6.757812 8.074219 6.660156 8.117188 C 6.65625 8.28125 6.652344 8.445312 6.648438 8.609375 C 6.625 8.621094 6.597656 8.636719 6.570312 8.652344 C 6.574219 9.046875 7.179688 10.152344 7.328125 10.503906 C 7.335938 10.566406 7.300781 10.753906 7.007812 10.660156 C 6.699219 9.894531 7.097656 10.640625 6.582031 9.636719 C 6.574219 10.3125 6.566406 10.992188 6.558594 11.671875 C 6.753906 11.625 7.074219 11.632812 7.273438 11.636719 C 7.1875 11.445312 7.589844 10.515625 7.6875 10.441406 C 7.878906 10.46875 8.070312 10.488281 8.261719 10.511719 C 8.371094 10.351562 8.339844 10.339844 8.449219 10.261719 C 8.625 10.296875 8.71875 10.242188 8.644531 10.589844 C 8.925781 10.632812 9 10.660156 9.011719 10.601562 C 8.988281 10.535156 8.914062 10.507812 9.089844 10.441406 C 9.152344 10.257812 9.109375 10.242188 9.019531 10.238281 C 8.878906 10.066406 9.660156 9.882812 9.441406 10.164062 C 9.394531 10.207031 9.257812 10.261719 9.277344 10.5 C 9.378906 10.503906 9.480469 10.507812 9.585938 10.511719 C 9.632812 10.417969 9.617188 10.226562 9.753906 10.292969 C 9.871094 9.871094 9.828125 10.105469 9.996094 9.332031 C 9.941406 9.199219 9.96875 9.167969 10.050781 9.113281 C 10.074219 8.96875 10.085938 9 10.144531 8.996094 C 10.269531 8.878906 10.441406 8.820312 10.597656 8.753906 C 10.601562 8.636719 10.597656 8.605469 10.726562 8.652344 C 11.429688 8.070312 12.925781 8.269531 13.816406 8.457031 C 14.042969 8.5 14.269531 8.554688 14.492188 8.613281 C 14.886719 8.714844 15.277344 8.847656 15.644531 9.03125 C 15.859375 9.136719 16.066406 9.265625 16.246094 9.429688 C 16.589844 9.757812 16.507812 9.910156 16.480469 10.171875 C 16.675781 10.40625 16.480469 10.503906 16.421875 10.847656 C 16.398438 10.84375 16.371094 10.839844 16.34375 10.835938 C 16.324219 10.945312 16.300781 11.054688 16.277344 11.164062 C 16.292969 11.183594 16.308594 11.203125 16.324219 11.21875 C 16.292969 11.375 16.261719 11.527344 16.234375 11.683594 C 16.304688 11.707031 16.382812 11.722656 16.453125 11.75 C 16.558594 11.855469 16.433594 12.070312 16.335938 12.1875 C 16.273438 12.175781 16.214844 12.160156 16.15625 12.144531 C 16.082031 12.554688 16.011719 12.96875 15.941406 13.378906 C 15.964844 13.414062 15.988281 13.453125 15.980469 13.496094 C 15.976562 13.535156 15.949219 13.566406 15.921875 13.597656 C 15.945312 13.65625 15.960938 13.726562 15.941406 13.789062 C 15.929688 13.828125 15.902344 13.863281 15.875 13.890625 C 15.867188 13.980469 15.847656 14.066406 15.800781 14.144531 C 15.777344 14.183594 15.785156 14.238281 15.753906 14.277344 C 15.734375 14.300781 15.703125 14.28125 15.679688 14.273438 C 15 14.617188 14.066406 14.582031 13.3125 14.488281 C 12.777344 14.414062 12.25 14.300781 11.730469 14.148438 C 11.691406 15.183594 11.652344 16.21875 11.609375 17.253906 C 11.703125 17.121094 12.074219 16.945312 12.191406 16.941406 C 12.621094 16.445312 13.242188 16.050781 13.824219 15.78125 C 13.816406 15.734375 13.804688 15.691406 13.792969 15.644531 C 14 15.488281 14.136719 15.503906 14.230469 15.542969 C 14.242188 15.535156 14.257812 15.53125 14.269531 15.523438 C 14.296875 15.410156 14.375 15.386719 14.519531 15.339844 C 14.65625 15.15625 14.949219 15.234375 14.972656 15.386719 C 15.847656 15.171875 16.871094 15.261719 17.707031 15.566406 C 17.878906 15.347656 18.320312 15.574219 18.25 15.816406 C 19.050781 16.167969 19.8125 16.847656 20.328125 17.535156 C 20.476562 17.488281 20.695312 17.6875 20.703125 17.703125 C 20.730469 17.753906 20.722656 17.808594 20.714844 17.863281 C 20.710938 17.90625 20.742188 17.949219 20.722656 17.992188 C 20.710938 18.023438 20.675781 18.042969 20.644531 18.058594 C 21.0625 18.828125 21.410156 19.835938 21.371094 20.691406 C 21.40625 20.691406 21.4375 20.691406 21.472656 20.691406 C 21.679688 21.15625 21.46875 21.359375 21.316406 21.347656 C 21.335938 21.859375 21.011719 22.648438 20.800781 23.113281 C 21.75 22.597656 21.378906 22.777344 21.894531 22.550781 C 21.878906 22.507812 21.871094 22.453125 21.898438 22.414062 C 21.984375 22.359375 22.027344 22.472656 22.046875 22.515625 C 22.492188 22.382812 22.1875 22.429688 22.59375 22.347656 C 22.613281 21.792969 22.636719 21.238281 22.660156 20.683594 C 22.5 20.535156 22.65625 20.296875 22.492188 20 C 22.265625 20.273438 22.054688 19.90625 22.011719 19.773438 C 22.171875 19.765625 22.09375 19.871094 22.429688 19.824219 C 22.453125 19.6875 22.589844 19.695312 22.738281 19.710938 C 22.753906 19.085938 22.769531 18.457031 22.78125 17.832031 C 22.699219 17.828125 22.617188 17.824219 22.535156 17.820312 C 22.335938 18.789062 22.214844 18.628906 22.1875 18.082031 C 22.070312 18.023438 22.136719 17.976562 22.117188 17.902344 C 22.082031 17.847656 22.011719 17.839844 21.953125 17.828125 C 21.957031 17.753906 21.964844 17.679688 21.960938 17.605469 C 21.917969 17.460938 21.8125 17.421875 21.921875 17.296875 C 21.851562 16.9375 21.644531 17.03125 21.328125 16.199219 C 19.914062 15.949219 19.925781 15.984375 20.039062 15.535156 C 19.738281 15.464844 19.722656 15.4375 19.746094 15.589844 C 19.808594 15.613281 19.867188 15.640625 19.925781 15.667969 C 19.734375 15.695312 19.691406 15.742188 19.210938 15.476562 C 19.175781 15.527344 19.117188 15.535156 19.0625 15.542969 C 18.957031 15.65625 18.839844 15.558594 18.519531 15.402344 C 18.53125 15.398438 18.550781 15.390625 18.558594 15.386719 C 18.542969 15.355469 18.511719 15.335938 18.484375 15.316406 C 18.425781 14.761719 18.332031 14.636719 18.804688 14.40625 C 18.445312 14.359375 18.082031 14.304688 17.746094 14.160156 C 17.492188 14.046875 17.21875 13.847656 17.316406 13.585938 C 17.226562 13.394531 17.246094 13.503906 17.242188 13.316406 C 17.214844 13.289062 17.1875 13.261719 17.164062 13.238281 C 17.164062 13.167969 17.164062 13.101562 17.164062 13.035156 C 17.179688 13.03125 17.199219 13.027344 17.21875 13.023438 C 17.21875 13.023438 17.183594 12.714844 17.195312 11.222656 C 17.125 11.214844 17.054688 11.207031 16.980469 11.199219 C 16.902344 11.050781 16.9375 10.875 17.015625 10.734375 C 17.074219 10.742188 17.136719 10.742188 17.195312 10.746094 C 17.199219 10.582031 17.203125 10.417969 17.207031 10.253906 C 17.226562 10.253906 17.246094 10.253906 17.261719 10.253906 C 17.261719 10.15625 17.261719 10.058594 17.261719 9.960938 C 17.230469 9.945312 17.195312 9.929688 17.164062 9.914062 C 17.167969 9.84375 17.167969 9.773438 17.171875 9.699219 C 17.199219 9.695312 17.226562 9.691406 17.25 9.6875 C 17.253906 9.640625 17.257812 9.589844 17.261719 9.542969 C 17.289062 9.546875 17.3125 9.550781 17.339844 9.554688 C 17.777344 8.457031 22.890625 8.421875 23.007812 10.195312 C 23.074219 10.273438 23.085938 10.3125 22.996094 10.402344 C 22.992188 10.578125 22.988281 10.753906 22.984375 10.925781 C 23.015625 10.957031 23.042969 10.988281 23.074219 11.019531 C 23.246094 10.992188 23.136719 10.992188 23.464844 11.007812 C 23.46875 10.957031 23.472656 10.910156 23.476562 10.859375 C 23.34375 10.773438 23.273438 10.757812 23.296875 10.691406 C 23.332031 10.660156 23.382812 10.691406 23.496094 10.722656 C 23.570312 10.695312 23.648438 10.675781 23.683594 10.75 C 23.6875 10.773438 23.683594 10.792969 23.679688 10.816406 C 23.949219 11.003906 23.914062 11.058594 23.667969 10.972656 C 23.660156 11.003906 23.652344 11.039062 23.644531 11.070312 C 23.683594 11.125 23.691406 11.191406 23.691406 11.253906 L 24.035156 11.253906 C 24.058594 11 24.148438 10.972656 24.40625 11.039062 C 24.410156 11.101562 24.414062 11.160156 24.417969 11.21875 C 24.671875 11.230469 25.003906 11.238281 25.050781 11.246094 C 25.164062 11.316406 25.246094 11.789062 25.269531 11.917969 C 25.59375 12.164062 25.210938 12.519531 25.179688 12.839844 C 25.320312 12.875 25.460938 12.921875 25.597656 12.976562 C 25.605469 12.945312 25.625 12.925781 25.648438 12.90625 C 25.671875 12.917969 25.699219 12.925781 25.726562 12.933594 C 25.722656 12.679688 25.71875 12.421875 25.714844 12.167969 C 25.628906 12.21875 25.519531 12.210938 25.4375 12.15625 C 25.410156 11.289062 25.382812 10.421875 25.359375 9.554688 C 25.105469 9.449219 24.980469 9.371094 25.144531 9.226562 C 25.117188 9 25.113281 8.714844 25.324219 8.628906 C 25.285156 7.324219 25.242188 6.023438 25.199219 4.722656 C 25.183594 4.71875 25.164062 4.714844 25.144531 4.710938 C 25.136719 4.519531 25.128906 4.328125 25.121094 4.136719 C 25.097656 4.132812 25.070312 4.128906 25.042969 4.125 C 24.910156 3.832031 24.878906 3.488281 24.976562 3.179688 C 24.175781 3.238281 21.90625 3.398438 21.183594 3.03125 C 21.125 3 21.058594 2.957031 21.039062 2.886719 C 21.03125 2.800781 21.089844 2.730469 21.152344 2.675781 C 21.71875 2.210938 23.882812 1.867188 24.605469 1.761719 C 24.484375 1.175781 24.695312 1.25 24.820312 1.21875 C 24.808594 1.148438 24.800781 1.078125 24.785156 1.007812 M 10.230469 9.304688 C 10.207031 9.335938 10.164062 9.335938 10.128906 9.339844 C 10.09375 9.378906 10.078125 9.433594 10.09375 9.484375 C 10.214844 9.496094 10.277344 9.503906 10.246094 9.621094 C 10.28125 9.652344 10.316406 9.679688 10.351562 9.710938 C 10.386719 9.589844 10.414062 9.464844 10.445312 9.339844 C 10.398438 9.296875 10.34375 9.261719 10.320312 9.199219 C 10.269531 9.214844 10.257812 9.265625 10.230469 9.304688 M 26.121094 9.777344 C 26.113281 9.835938 26.105469 9.890625 26.097656 9.949219 C 26.070312 9.964844 26.042969 9.984375 26.019531 10.003906 C 26.042969 12.820312 26.035156 12.628906 26.046875 12.746094 C 26.054688 12.636719 26.09375 12.511719 26.199219 12.523438 C 26.230469 12.539062 26.257812 12.570312 26.285156 12.59375 C 26.285156 12.59375 26.230469 13.324219 26.230469 13.328125 C 26.25 13.347656 26.269531 13.371094 26.289062 13.394531 C 26.285156 13.511719 26.28125 13.625 26.277344 13.742188 C 26.246094 13.75 26.214844 13.757812 26.1875 13.765625 C 26.222656 13.914062 26.191406 13.917969 26.140625 13.9375 C 26.144531 13.976562 26.148438 14.019531 26.152344 14.058594 C 26.347656 14.054688 26.605469 14.070312 26.769531 14.179688 C 26.777344 14.359375 26.785156 14.535156 26.789062 14.710938 C 27.171875 14.683594 26.796875 14.847656 26.578125 14.980469 C 26.570312 15.011719 26.5625 15.042969 26.554688 15.070312 C 26.394531 15.085938 26.234375 15.121094 26.074219 15.152344 C 26.070312 15.386719 26.066406 15.625 26.0625 15.859375 C 26.3125 15.898438 26.277344 16.34375 26.199219 16.402344 C 26.1875 16.574219 26.1875 16.753906 26.109375 16.90625 C 26.101562 17.1875 26.097656 17.46875 26.09375 17.753906 C 26.074219 19.011719 26.050781 20.273438 26.03125 21.535156 C 27.117188 19.886719 27.347656 19.757812 27.347656 19.757812 C 27.355469 19.546875 27.273438 19.199219 27.539062 19.597656 C 27.601562 19.503906 27.71875 19.488281 27.820312 19.496094 C 27.878906 19.472656 27.9375 19.453125 28 19.441406 C 28.019531 18.445312 28.035156 17.453125 28.054688 16.457031 C 28.058594 16.417969 28.035156 16.382812 28.03125 16.34375 C 28.015625 16.214844 28.027344 16.082031 28.035156 15.949219 C 27.984375 15.933594 27.9375 15.921875 27.886719 15.90625 C 27.867188 15.304688 27.832031 15.285156 28.15625 15.242188 C 28.199219 13.75 28.238281 12.261719 28.28125 10.769531 C 28.261719 10.761719 28.242188 10.753906 28.226562 10.746094 C 28.199219 10.796875 28.195312 10.855469 27.988281 10.769531 C 27.988281 10.742188 27.988281 10.710938 27.988281 10.679688 C 28.09375 10.625 28.074219 10.617188 28.125 10.433594 C 28.089844 10.421875 28.054688 10.410156 28.023438 10.398438 C 28.027344 10.371094 28.03125 10.347656 28.035156 10.320312 C 27.996094 10.265625 27.957031 10.214844 27.921875 10.160156 C 27.929688 10.105469 27.9375 10.050781 27.945312 9.992188 C 27.332031 9.964844 26.722656 9.898438 26.121094 9.777344 M 17.363281 10.78125 C 17.410156 10.78125 17.453125 10.78125 17.5 10.78125 C 17.492188 10.679688 17.484375 10.578125 17.476562 10.476562 C 17.4375 10.449219 17.402344 10.417969 17.367188 10.386719 C 17.363281 10.519531 17.363281 10.648438 17.363281 10.78125 M 22.667969 10.90625 C 22.738281 10.902344 22.804688 10.898438 22.875 10.894531 C 22.761719 10.757812 22.71875 10.785156 22.667969 10.90625 M 22.367188 10.871094 C 22.367188 10.976562 22.367188 11.082031 22.367188 11.1875 C 22.40625 11.171875 22.441406 11.15625 22.480469 11.140625 C 22.480469 11.113281 22.480469 11.082031 22.480469 11.050781 C 22.464844 11.042969 22.449219 11.035156 22.4375 11.027344 C 22.4375 10.964844 22.441406 10.902344 22.445312 10.835938 C 22.421875 10.847656 22.394531 10.859375 22.367188 10.871094 M 8.117188 11.019531 C 8.117188 11.042969 8.117188 11.070312 8.117188 11.097656 C 8.273438 11.238281 8.316406 11.425781 8.183594 11.625 C 8.65625 11.613281 9.136719 11.636719 9.605469 11.703125 C 9.597656 11.667969 9.589844 11.632812 9.582031 11.59375 C 9.441406 11.558594 9.441406 11.433594 9.46875 11.289062 C 9.304688 11.265625 9.140625 11.242188 8.976562 11.21875 C 8.929688 11.167969 8.890625 11.101562 8.910156 11.027344 C 8.816406 11.019531 8.726562 11.015625 8.632812 11.007812 C 8.632812 11.128906 8.484375 11.089844 8.261719 11.074219 C 8.261719 11.046875 8.261719 11.023438 8.261719 10.996094 C 8.214844 11.011719 8.164062 11.015625 8.117188 11.019531 M 17.363281 11.230469 C 17.320312 13.03125 17.3125 12.777344 17.351562 13 C 17.394531 12.960938 17.433594 12.925781 17.476562 12.886719 C 17.484375 12.351562 17.492188 11.8125 17.5 11.277344 C 17.453125 11.261719 17.410156 11.246094 17.363281 11.230469 M 23.703125 11.660156 C 23.734375 11.957031 23.695312 11.894531 23.0625 11.894531 C 23.019531 11.988281 22.976562 12.09375 22.882812 12.148438 C 22.882812 12.222656 22.882812 12.296875 22.882812 12.367188 C 22.863281 12.375 22.847656 12.382812 22.828125 12.390625 C 22.824219 12.40625 22.824219 12.425781 22.824219 12.441406 C 22.808594 12.332031 22.75 12.121094 22.617188 12.0625 C 22.613281 12.238281 22.617188 12.410156 22.613281 12.582031 C 23.035156 12.597656 23.453125 12.621094 23.871094 12.652344 C 24.09375 12.667969 24.320312 12.683594 24.539062 12.730469 C 24.539062 12.710938 24.539062 12.691406 24.539062 12.675781 C 24.429688 12.574219 24.351562 12.429688 24.355469 12.28125 C 24.359375 12.152344 24.425781 12.035156 24.507812 11.941406 C 24.507812 11.890625 24.507812 11.84375 24.507812 11.792969 C 24.480469 11.78125 24.449219 11.757812 24.417969 11.765625 C 24.410156 11.777344 24.398438 11.785156 24.390625 11.792969 C 24.269531 11.792969 24.144531 11.789062 24.023438 11.785156 C 24.003906 11.75 23.984375 11.707031 24.011719 11.671875 C 23.90625 11.667969 23.804688 11.664062 23.703125 11.660156 M 22.378906 11.824219 C 22.367188 12.074219 22.359375 12.324219 22.347656 12.570312 C 22.386719 12.578125 22.429688 12.585938 22.46875 12.59375 C 22.441406 11.851562 22.464844 12 22.378906 11.824219 M 5.238281 12.570312 C 5.230469 12.667969 5.222656 12.765625 5.214844 12.863281 C 5.261719 12.929688 5.246094 12.820312 5.261719 13.53125 C 5.300781 13.535156 5.359375 13.542969 5.371094 13.496094 C 5.363281 13.433594 5.289062 13.242188 5.382812 13.15625 C 5.394531 12.992188 5.398438 12.824219 5.40625 12.660156 C 5.351562 12.632812 5.292969 12.601562 5.238281 12.570312 M 22.367188 12.730469 C 22.367188 12.785156 22.367188 12.84375 22.367188 12.898438 C 22.40625 12.921875 22.441406 12.945312 22.480469 12.964844 C 22.476562 12.886719 22.472656 12.808594 22.46875 12.730469 C 22.4375 12.730469 22.402344 12.730469 22.367188 12.730469 M 5.226562 13.945312 C 5.199219 15.050781 5.175781 16.152344 5.148438 17.257812 C 5.3125 17.351562 5.253906 17.46875 5.363281 13.933594 C 5.316406 13.9375 5.273438 13.941406 5.226562 13.945312 M 18.550781 14.992188 C 18.511719 15.074219 18.511719 15.339844 18.652344 15.242188 C 18.648438 15.195312 18.644531 15.152344 18.640625 15.105469 C 18.519531 15.035156 18.570312 15.03125 18.605469 14.988281 C 18.589844 14.980469 18.5625 14.96875 18.550781 14.992188 M 18.785156 15.195312 C 18.75 15.289062 18.753906 15.324219 18.863281 15.355469 C 18.863281 15.316406 18.863281 15.277344 18.863281 15.242188 C 18.835938 15.226562 18.8125 15.210938 18.785156 15.195312 M 19.15625 15.230469 C 19.167969 15.289062 19.175781 15.347656 19.1875 15.410156 C 19.425781 15.390625 19.3125 15.382812 19.601562 15.535156 C 19.644531 15.242188 19.753906 15.25 19.15625 15.230469 M 19 15.296875 C 19.003906 15.332031 19.007812 15.367188 19.007812 15.398438 C 19.121094 15.46875 19.121094 15.351562 19.089844 15.273438 C 19.058594 15.28125 19.027344 15.289062 19 15.296875 M 25.476562 15.371094 C 25.347656 15.425781 25.214844 15.460938 25.078125 15.488281 C 25.074219 15.527344 25.070312 15.5625 25.066406 15.601562 C 25.109375 15.597656 25.148438 15.59375 25.191406 15.589844 C 25.253906 15.53125 25.167969 15.558594 25.648438 15.464844 C 25.648438 15.402344 25.648438 15.339844 25.648438 15.273438 C 25.585938 15.300781 25.539062 15.347656 25.476562 15.371094 M 20.339844 15.578125 C 20.265625 15.664062 20.292969 15.789062 20.308594 15.894531 C 20.4375 15.914062 20.566406 15.929688 20.695312 15.949219 C 20.71875 15.976562 20.746094 15.992188 20.777344 15.988281 C 21.921875 15.949219 20.183594 15.792969 21.765625 15.972656 C 21.75 15.886719 21.734375 15.800781 21.71875 15.714844 C 21.539062 15.707031 21.582031 15.765625 20.339844 15.578125 M 23.632812 15.703125 C 23.144531 15.734375 22.65625 15.734375 22.164062 15.726562 C 22.410156 16.183594 23.210938 15.894531 24.664062 15.605469 C 24.320312 15.648438 23.976562 15.683594 23.632812 15.703125 M 25.210938 15.714844 C 25.25 15.839844 25.324219 16.046875 25.425781 15.964844 C 25.402344 15.835938 25.519531 15.820312 25.648438 15.8125 C 25.644531 15.753906 25.640625 15.695312 25.636719 15.636719 C 25.496094 15.660156 25.355469 15.6875 25.210938 15.714844 M 21.84375 15.726562 C 21.859375 15.816406 21.878906 15.90625 21.898438 15.996094 C 21.960938 16.003906 22.023438 16.011719 22.089844 16.019531 C 22.035156 15.921875 21.984375 15.824219 21.933594 15.726562 C 21.902344 15.726562 21.871094 15.726562 21.84375 15.726562 M 24.707031 15.851562 C 24.515625 15.882812 24.320312 15.925781 24.128906 15.960938 C 24.042969 16.074219 23.277344 17.089844 23.1875 17.210938 C 23.183594 17.289062 23.160156 18.011719 23.109375 19.742188 C 23.378906 19.75 23.300781 20.082031 23.296875 20.195312 C 23.277344 20.210938 23.253906 20.226562 23.230469 20.242188 C 23.214844 20.367188 23.199219 20.496094 23.1875 20.625 C 23.164062 20.640625 23.140625 20.660156 23.117188 20.679688 C 23.109375 21.226562 23.105469 21.777344 23.097656 22.324219 C 23.117188 22.351562 23.140625 22.375 23.164062 22.402344 C 23.621094 22.4375 24.789062 23.203125 24.84375 23.292969 C 25.0625 22.972656 25.285156 22.65625 25.5 22.335938 C 25.507812 22.179688 25.570312 16.976562 25.570312 16.894531 C 25.570312 16.894531 25.414062 16.152344 25.414062 16.152344 C 25.386719 16.152344 25.359375 16.152344 25.335938 16.15625 C 25.273438 16.1875 25.246094 16.386719 25.234375 16.457031 C 25.195312 16.457031 25.160156 16.457031 25.121094 16.457031 C 25.054688 16.257812 25.042969 16.046875 25.042969 15.839844 C 24.941406 15.894531 24.816406 15.875 24.707031 15.851562 M 23.277344 16.152344 C 23.3125 16.355469 23.292969 16.304688 23.21875 16.703125 C 23.238281 16.714844 23.257812 16.726562 23.277344 16.738281 C 23.460938 16.5 23.648438 16.257812 23.835938 16.019531 C 23.648438 16.0625 23.460938 16.109375 23.277344 16.152344 M 21.519531 16.210938 C 21.578125 16.339844 21.710938 16.726562 21.832031 16.734375 C 21.765625 16.582031 21.78125 16.410156 21.808594 16.253906 C 21.710938 16.238281 21.613281 16.222656 21.519531 16.210938 M 21.875 16.253906 C 21.785156 16.570312 21.917969 16.824219 21.96875 16.871094 C 22.125 16.9375 22.148438 17.117188 22.167969 17.292969 C 22.191406 17.160156 22.21875 17.019531 22.199219 16.886719 C 22.15625 16.792969 22.164062 16.789062 22.199219 16.332031 C 22.152344 16.335938 22.101562 16.335938 22.0625 16.300781 C 21.898438 16.289062 21.984375 16.273438 21.875 16.253906 M 22.738281 16.792969 C 22.777344 16.984375 22.707031 17 22.636719 16.953125 C 22.621094 16.902344 22.605469 16.855469 22.59375 16.804688 C 22.570312 16.804688 22.546875 16.804688 22.527344 16.804688 C 22.453125 16.921875 22.472656 16.75 22.457031 17.492188 C 22.53125 17.496094 22.605469 17.5 22.683594 17.503906 C 22.730469 17.445312 22.777344 17.382812 22.828125 17.324219 C 22.832031 17.160156 22.835938 16.992188 22.839844 16.828125 C 22.804688 16.816406 22.769531 16.804688 22.738281 16.792969 M 6.707031 19.171875 C 6.710938 20.195312 6.710938 21.21875 6.714844 22.246094 C 6.917969 22.257812 7.324219 22.289062 7.484375 22.425781 C 7.398438 22.460938 7.351562 22.425781 7.277344 22.472656 C 7.316406 22.53125 7.480469 22.554688 7.644531 22.582031 C 7.734375 21.484375 7.824219 20.382812 7.914062 19.285156 C 7.8125 19.289062 7.714844 19.277344 7.613281 19.269531 C 7.3125 19.242188 7.007812 19.207031 6.707031 19.171875 M 8.40625 19.316406 C 8.300781 19.3125 8.191406 19.292969 8.082031 19.292969 C 7.972656 20.402344 7.867188 21.507812 7.757812 22.617188 C 7.882812 22.660156 8.128906 22.742188 8.226562 22.828125 C 8.195312 22.742188 8.167969 22.65625 8.136719 22.570312 C 8.175781 22.46875 8.214844 22.367188 8.25 22.269531 C 8.28125 22.265625 8.308594 22.265625 8.339844 22.265625 C 8.390625 21.753906 8.488281 21.242188 8.640625 20.746094 C 8.773438 20.304688 8.957031 19.867188 9.222656 19.484375 C 9.199219 19.460938 9.171875 19.433594 9.144531 19.40625 C 9.148438 19.367188 9.152344 19.324219 9.15625 19.28125 C 8.910156 19.335938 8.65625 19.332031 8.40625 19.316406 M 27.632812 19.945312 C 27.632812 20.007812 27.632812 20.066406 27.632812 20.128906 C 27.601562 20.140625 27.570312 20.148438 27.542969 20.160156 C 27.523438 20.140625 27.503906 20.117188 27.484375 20.09375 C 27.132812 20.402344 27.296875 20.21875 26.097656 22.03125 C 26.117188 22.03125 27.75 22.15625 27.910156 22.078125 C 27.941406 21.367188 27.972656 20.65625 28 19.949219 C 27.894531 19.953125 27.777344 19.949219 27.6875 19.882812 C 27.667969 19.902344 27.648438 19.925781 27.632812 19.945312 M 28.359375 20.230469 C 28.34375 20.84375 28.328125 21.460938 28.3125 22.074219 C 28.3125 22.074219 28.488281 22.0625 28.929688 21.894531 C 28.617188 20.464844 28.691406 20.496094 28.359375 20.230469 M 28.972656 21.265625 C 29.015625 21.460938 29.066406 21.65625 29.105469 21.851562 C 29.121094 21.792969 29.148438 21.742188 29.175781 21.691406 C 29.097656 21.5 29.019531 21.308594 28.945312 21.117188 C 28.945312 21.167969 28.960938 21.214844 28.972656 21.265625 M 28.839844 22.199219 C 28.84375 22.339844 28.847656 22.476562 28.851562 22.617188 C 28.941406 22.632812 29.035156 22.65625 29.109375 22.714844 C 29.0625 22.523438 29.019531 22.328125 28.976562 22.132812 C 28.929688 22.15625 28.886719 22.175781 28.839844 22.199219 M 26.457031 22.3125 C 26.316406 22.34375 26.167969 22.320312 26.03125 22.289062 C 26.027344 22.59375 26.023438 22.894531 26.019531 23.199219 C 26.074219 23.210938 26.101562 23.257812 26.121094 23.304688 C 26.316406 23.273438 27.054688 23.546875 27.261719 23.652344 C 27.296875 23.226562 27.328125 22.804688 27.363281 22.378906 C 26.261719 22.246094 26.613281 22.28125 26.457031 22.3125 M 5.742188 22.761719 C 5.492188 22.882812 5.277344 23.0625 5.082031 23.257812 C 5.117188 23.304688 5.140625 23.355469 5.179688 23.394531 C 5.402344 23.492188 5.480469 23.605469 5.542969 23.761719 C 5.679688 23.53125 5.820312 23.304688 5.953125 23.078125 C 5.925781 22.953125 5.964844 22.824219 6.035156 22.71875 C 6.03125 22.699219 6.027344 22.679688 6.023438 22.660156 C 5.925781 22.691406 5.828125 22.714844 5.742188 22.761719 M 28.308594 22.699219 C 28.261719 22.726562 28.261719 22.785156 28.238281 22.828125 C 28.335938 22.882812 28.265625 23.050781 28.226562 23.167969 C 28.257812 23.214844 28.289062 23.261719 28.183594 23.402344 C 28.21875 23.445312 28.257812 23.476562 28.183594 23.664062 C 28.21875 23.714844 28.195312 23.78125 28.167969 23.832031 C 28.339844 23.835938 28.4375 23.804688 28.394531 24 C 28.394531 24 28.257812 24.050781 27.945312 24.058594 C 28.183594 24.207031 28.421875 24.359375 28.660156 24.507812 C 28.660156 23.964844 28.660156 23.421875 28.660156 22.875 C 28.566406 22.804688 28.46875 22.734375 28.371094 22.660156 C 28.347656 22.675781 28.328125 22.6875 28.308594 22.699219 M 27.566406 22.730469 C 27.542969 23.035156 27.519531 23.335938 27.496094 23.640625 C 27.617188 23.632812 27.734375 23.625 27.855469 23.617188 C 27.8125 23.519531 27.847656 23.410156 27.910156 23.328125 C 27.847656 23.242188 27.878906 23.128906 27.921875 23.042969 C 27.902344 22.988281 27.90625 22.925781 27.921875 22.867188 C 28.054688 22.859375 27.941406 22.734375 27.898438 22.699219 C 27.785156 22.667969 27.675781 22.714844 27.566406 22.730469 M 23.191406 22.804688 C 23.175781 22.828125 23.097656 22.96875 23.0625 23.011719 C 23.265625 23.1875 23.21875 23.09375 23.289062 23.796875 C 23.910156 23.324219 24.003906 23.101562 24.003906 23.101562 C 23.652344 22.746094 23.242188 22.761719 23.191406 22.804688 M 6.84375 22.796875 C 6.8125 22.878906 6.824219 22.851562 6.71875 22.921875 C 6.734375 23.628906 6.753906 24.339844 6.773438 25.050781 C 6.894531 25.058594 7.011719 25.0625 7.132812 25.070312 C 7.214844 25.011719 7.28125 24.753906 7.277344 24.621094 C 7.292969 24.605469 7.308594 24.589844 7.320312 24.578125 C 7.382812 23.90625 7.484375 23.554688 7.636719 22.898438 C 7.300781 22.914062 7.375 22.796875 6.84375 22.796875 M 22.167969 22.808594 C 22.132812 22.878906 22.128906 22.960938 22.144531 23.035156 C 22.023438 23.246094 21.957031 22.917969 21.941406 22.871094 C 21.816406 22.863281 21.398438 23.132812 21.285156 23.203125 C 21.5625 23.320312 21.6875 23.335938 22.296875 23.773438 C 22.34375 23.746094 22.371094 23.71875 22.570312 23.800781 C 22.578125 23.515625 22.585938 23.234375 22.59375 22.953125 C 22.460938 22.957031 22.414062 23.050781 22.269531 22.796875 C 22.234375 22.800781 22.199219 22.804688 22.167969 22.808594 M 28.839844 22.910156 C 28.832031 23.472656 28.824219 24.035156 28.816406 24.597656 C 29.085938 24.761719 29.355469 24.921875 29.625 25.082031 C 29.484375 24.410156 29.339844 23.738281 29.199219 23.066406 C 29.054688 22.949219 28.933594 22.875 28.839844 22.910156 M 6.089844 23.167969 C 6.097656 23.335938 6.101562 23.253906 5.6875 23.992188 C 5.871094 24.300781 6.050781 24.613281 6.234375 24.925781 C 6.230469 24.273438 6.230469 23.625 6.222656 22.976562 C 6.152344 23.015625 6.085938 23.082031 6.089844 23.167969 M 7.734375 22.976562 C 7.269531 25.152344 7.539062 24.199219 7.476562 24.890625 C 7.84375 24.6875 8.210938 24.484375 8.574219 24.285156 C 8.609375 23.929688 8.617188 24.386719 8.417969 23.316406 C 7.941406 23.042969 7.847656 22.988281 7.734375 22.976562 M 24.113281 23.347656 C 23.832031 23.710938 24.042969 23.460938 23.410156 24.039062 C 23.464844 24.011719 24.5 23.425781 24.519531 23.417969 C 24.429688 23.355469 24.339844 23.296875 24.25 23.234375 C 24.203125 23.273438 24.148438 23.296875 24.113281 23.347656 M 20.511719 23.652344 C 20.519531 23.667969 20.53125 23.679688 20.542969 23.695312 C 20.640625 23.679688 21.242188 24.480469 20.53125 24.125 C 20.554688 24.3125 20.554688 24.429688 20.5 24.5 C 20.53125 24.667969 20.566406 24.835938 20.601562 25.003906 C 20.582031 25.03125 20.5625 25.054688 20.542969 25.082031 C 20.5625 25.257812 20.582031 25.4375 20.601562 25.613281 C 20.675781 25.585938 20.753906 25.570312 20.828125 25.539062 C 21.164062 25.257812 21.175781 25.269531 22.726562 24.394531 C 22.726562 24.367188 22.726562 24.335938 22.726562 24.304688 C 22.726562 24.304688 22.191406 24.132812 22.191406 24.132812 C 22.160156 24.097656 22.167969 24.046875 22.167969 24 C 21.761719 23.703125 21.070312 23.328125 21.070312 23.328125 C 20.882812 23.433594 20.695312 23.542969 20.511719 23.652344 M 26.300781 23.691406 C 26.234375 23.695312 26.171875 23.703125 26.109375 23.710938 C 26.105469 23.742188 26.101562 23.777344 26.097656 23.808594 C 26.261719 23.835938 26.570312 23.871094 26.726562 23.8125 C 26.6875 23.796875 26.347656 23.683594 26.300781 23.691406 M 23.640625 24.269531 C 23.574219 24.3125 23.503906 24.351562 23.441406 24.40625 C 23.546875 24.476562 23.816406 24.644531 23.914062 24.742188 C 23.949219 24.703125 23.988281 24.644531 24.050781 24.648438 C 24.257812 24.167969 24.507812 23.789062 24.507812 23.789062 C 24.214844 23.945312 23.925781 24.101562 23.640625 24.269531 M 24.804688 23.949219 C 24.691406 24.085938 24.453125 24.597656 24.363281 24.785156 C 24.445312 24.839844 24.398438 25.089844 24.375 25.230469 C 24.617188 25.484375 24.867188 25.738281 25.109375 25.992188 C 25.109375 25.921875 25.152344 25.863281 25.199219 25.816406 C 25.226562 25.820312 25.253906 25.828125 25.28125 25.835938 C 25.476562 24.875 25.425781 25.28125 25.480469 23.96875 C 25.464844 23.960938 25.453125 23.953125 25.4375 23.945312 C 25.230469 24.144531 25.039062 24.0625 24.910156 23.8125 C 24.875 23.859375 24.839844 23.90625 24.804688 23.949219 M 19.785156 24.125 C 19.761719 24.253906 19.746094 24.386719 19.695312 24.507812 C 19.832031 24.484375 19.96875 24.464844 20.105469 24.441406 C 20.105469 24.382812 20.105469 24.324219 20.105469 24.265625 C 20.0625 24.261719 20.023438 24.234375 20.003906 24.195312 C 19.960938 24.195312 19.917969 24.199219 19.871094 24.203125 C 19.867188 24.128906 19.878906 24.046875 19.863281 23.972656 C 19.804688 24 19.789062 24.066406 19.785156 24.125 M 26.839844 24.140625 C 26.96875 24.210938 27.097656 24.28125 27.226562 24.351562 C 27.234375 24.261719 27.242188 24.171875 27.25 24.082031 C 27.113281 24.101562 26.976562 24.113281 26.839844 24.140625 M 25.996094 24.148438 C 25.996094 24.171875 25.996094 24.191406 25.996094 24.214844 C 26.386719 24.5 26.78125 24.785156 27.171875 25.070312 C 27.191406 24.867188 27.210938 24.660156 27.226562 24.453125 C 27.058594 24.347656 26.894531 24.242188 26.722656 24.140625 C 26.480469 24.136719 26.238281 24.144531 25.996094 24.148438 M 27.453125 24.183594 C 27.445312 24.273438 27.4375 24.363281 27.429688 24.453125 C 27.660156 24.585938 27.890625 24.714844 28.125 24.847656 C 28.1875 24.800781 28.25 24.757812 28.3125 24.710938 C 28.027344 24.535156 27.738281 24.359375 27.453125 24.183594 M 5.238281 24.777344 C 5.246094 24.800781 5.253906 24.824219 5.261719 24.847656 C 5.53125 24.964844 5.804688 25.078125 6.078125 25.195312 C 6.0625 25 6.195312 25.265625 5.574219 24.195312 C 5.460938 24.386719 5.351562 24.582031 5.238281 24.777344 M 25.984375 24.285156 C 25.964844 24.902344 25.949219 25.523438 25.925781 26.144531 C 26.226562 26.355469 26.457031 26.074219 27.304688 25.488281 C 27.011719 25.261719 26.925781 25.238281 27.089844 25.128906 C 26.722656 24.847656 26.351562 24.566406 25.984375 24.285156 M 27.429688 24.554688 C 27.414062 24.765625 27.398438 24.972656 27.382812 25.183594 C 27.496094 25.183594 27.605469 25.1875 27.71875 25.183594 C 28.058594 25.011719 27.996094 25 28.066406 24.902344 C 27.855469 24.785156 27.640625 24.671875 27.429688 24.554688 M 19.589844 24.765625 C 19.441406 25.097656 19.09375 25.644531 18.839844 26.066406 C 18.964844 25.941406 19.648438 24.917969 19.746094 24.769531 C 19.722656 24.746094 19.695312 24.722656 19.667969 24.699219 C 19.640625 24.722656 19.609375 24.738281 19.589844 24.765625 M 23.53125 24.800781 C 23.542969 24.839844 23.554688 24.882812 23.566406 24.921875 C 23.6875 24.945312 23.707031 25.035156 23.699219 25.160156 C 23.636719 25.222656 23.65625 25.222656 23.695312 25.242188 C 23.648438 25.304688 23.675781 25.289062 23.699219 25.3125 C 23.753906 25.257812 23.875 25.175781 23.824219 25.121094 C 23.824219 25.085938 23.835938 25.050781 23.828125 25.019531 C 23.769531 24.90625 23.65625 24.824219 23.53125 24.800781 M 28.324219 25.039062 C 28.296875 25.070312 28.261719 25.101562 28.238281 25.140625 C 28.222656 25.183594 28.21875 25.230469 28.210938 25.273438 C 28.347656 25.253906 28.480469 25.238281 28.613281 25.21875 C 28.621094 25.203125 28.628906 25.1875 28.636719 25.171875 C 28.53125 25.128906 28.429688 25.082031 28.324219 25.039062 Z M 28.324219 25.039062 "/>
</g>
</svg>
