<svg xmlns="http://www.w3.org/2000/svg" xmlns:v="https://svgstorm.com"
viewBox = "0 0 500 500"
width="500"
height="500">
<g fill="None" fill-opacity="0.0" stroke="#000000" stroke-opacity="1.00" stroke-width="0.3"><path d="
M 0.00 500.00 
L 500.00 500.00
L 500.00 0.00
L 0.00 0.00
L 0.00 500.00
M 253.00 182.00 
C 247.16 189.06 251.00 201.70 250.00 212.00 C 249.00 222.30 251.58 235.39 249.00 245.00
C 246.39 235.41 249.05 223.29 248.00 213.00 C 246.95 202.71 250.91 189.15 245.00 182.00
C 247.67 182.00 250.33 182.00 253.00 182.00
M 322.00 216.00 
C 322.00 213.34 322.10 210.66 322.00 208.00
C 321.45 193.64 307.26 179.15 292.77 189.77 C 278.28 200.40 309.60 208.83 300.22 223.22 C 290.85 237.62 270.98 228.78 271.01 213.99 C 271.04 199.20 281.72 188.59 295.03 184.02 C 308.33 179.46 326.97 182.04 338.75 190.25 C 350.52 198.47 355.77 214.44 348.69 227.69 C 341.61 240.95 327.38 248.31 312.00 245.00
C 318.14 236.55 322.47 226.78 322.00 216.00
M 161.00 185.00 
C 162.20 186.26 162.17 186.77 161.00 188.00
C 158.11 191.04 150.86 187.79 147.00 189.00
C 144.11 193.13 148.27 201.68 147.00 207.00 C 145.73 212.32 147.66 220.20 147.00 226.00 C 146.34 231.80 147.50 239.06 147.00 245.00
C 138.00 245.00 129.00 245.00 120.00 245.00
C 119.33 226.50 121.33 206.68 119.00 189.00
C 116.17 187.02 106.78 191.62 105.00 188.00
C 104.85 187.69 104.85 185.31 105.00 185.00
C 106.59 181.77 118.87 184.45 123.00 184.00 C 127.13 183.55 137.43 183.44 142.00 184.00 C 146.57 184.56 157.91 181.75 161.00 185.00
M 219.00 185.00 
C 222.40 188.40 208.18 190.05 207.70 196.70 C 207.21 203.35 205.03 212.29 206.00 220.00 C 206.97 227.71 205.27 237.13 206.00 245.00
C 204.67 245.00 203.33 245.00 202.00 245.00
C 198.36 242.90 201.83 231.66 201.00 227.00 C 200.17 222.34 201.20 212.18 201.00 207.00
C 200.82 202.32 199.00 196.61 196.75 193.25 C 194.50 189.89 183.71 189.04 186.00 185.00
C 187.54 182.28 198.53 184.02 202.00 184.00 C 205.47 183.98 216.51 182.51 219.00 185.00
M 141.00 255.00 
C 142.60 258.93 142.70 266.14 141.00 270.00
C 138.84 267.24 140.55 262.51 140.00 259.00
C 137.65 261.54 136.34 265.52 134.00 268.00
C 131.02 266.26 130.73 261.92 128.00 260.00
C 127.39 263.17 129.25 267.65 127.00 270.00
C 125.40 266.07 125.30 258.86 127.00 255.00
C 129.82 257.77 130.71 262.64 134.00 265.00
C 136.82 262.23 137.71 257.36 141.00 255.00
M 163.00 265.00 
C 163.85 261.90 161.57 257.30 164.00 255.00
C 165.92 259.85 166.70 270.20 158.99 269.99 C 151.28 269.78 152.13 259.71 154.00 255.00
C 153.69 260.35 156.92 275.48 163.00 265.00
M 185.00 257.00 
C 176.78 256.84 175.69 259.73 184.07 262.93 C 192.46 266.13 175.38 275.77 175.00 267.00
C 181.79 271.90 187.49 264.73 178.32 262.68 C 169.15 260.63 182.06 249.61 185.00 257.00
M 197.00 270.00 
C 195.40 266.07 195.30 258.86 197.00 255.00
C 198.60 258.93 198.70 266.14 197.00 270.00
M 221.00 257.00 
C 216.98 257.07 209.28 255.98 210.00 263.00 C 210.73 270.03 216.33 269.07 221.00 267.00
C 217.52 273.13 208.25 269.57 208.01 262.99 C 207.77 256.41 215.76 252.44 221.00 257.00
M 255.00 257.00 
C 250.94 255.83 241.42 258.06 244.00 265.00 C 246.59 271.95 255.46 268.21 255.00 263.00
C 257.76 272.13 244.40 271.91 242.23 264.77 C 240.06 257.63 249.96 251.44 255.00 257.00
M 275.00 264.00 
C 274.95 266.40 276.97 268.04 278.00 270.00
C 273.52 269.80 275.99 266.57 271.92 265.08 C 267.84 263.60 268.71 269.35 266.00 270.00
C 266.00 265.00 266.00 260.00 266.00 255.00
C 272.05 252.02 282.96 259.96 275.00 264.00
M 297.00 255.00 
C 306.42 257.39 301.55 273.84 292.00 270.00 C 282.45 266.16 287.82 252.67 297.00 255.00
M 313.00 265.00 
C 312.24 262.48 310.70 257.39 313.00 255.00
C 316.19 258.24 310.79 268.40 318.08 268.92 C 325.36 269.45 321.57 258.30 324.00 255.00
C 331.24 263.11 316.36 278.21 313.00 265.00
M 344.00 256.00 
C 347.44 255.61 349.25 264.22 344.75 264.75 C 340.25 265.29 337.59 266.13 336.00 270.00
C 336.00 265.33 336.00 260.67 336.00 256.00
C 336.84 254.33 343.17 254.34 344.00 256.00
M 168.00 295.00 
C 170.31 295.08 172.70 295.11 175.00 295.00
C 181.19 294.69 186.35 292.93 191.25 289.25 C 196.14 285.57 197.46 278.28 204.00 279.00
C 199.43 293.51 183.76 302.38 169.00 302.00
C 166.40 302.31 163.51 302.24 161.00 302.00
C 145.65 302.00 125.15 296.25 122.00 279.00
C 130.33 279.00 138.67 279.00 147.00 279.00
C 148.47 288.51 158.40 295.87 168.00 295.00
M 253.00 308.00 
C 250.48 307.44 246.70 309.19 245.00 307.00
C 252.19 301.48 245.01 286.86 249.00 279.00
C 252.65 287.55 246.27 301.76 253.00 308.00
M 269.00 300.00 
C 266.53 298.27 268.09 290.94 269.00 289.00
C 275.77 274.53 291.30 279.62 305.00 279.00 C 318.70 278.38 337.81 279.47 352.00 279.00
C 352.00 286.00 352.00 293.00 352.00 300.00
C 324.33 300.00 296.67 300.00 269.00 300.00 Z"/>
</g>
<g fill="None" fill-opacity="0.0" stroke="#F8F8F8" stroke-opacity="1.00" stroke-width="0.3"><path d="
M 253.00 182.00 
C 250.33 182.00 247.67 182.00 245.00 182.00
C 250.91 189.15 246.95 202.71 248.00 213.00 C 249.05 223.29 246.39 235.41 249.00 245.00
C 251.58 235.39 249.00 222.30 250.00 212.00 C 251.00 201.70 247.16 189.06 253.00 182.00 Z"/>
</g>
<g fill="None" fill-opacity="0.0" stroke="#F9F9F9" stroke-opacity="1.00" stroke-width="0.3"><path d="
M 322.00 208.00 
C 322.38 210.68 322.25 213.44 322.00 216.00
C 322.47 226.78 318.14 236.55 312.00 245.00
C 327.38 248.31 341.61 240.95 348.69 227.69 C 355.77 214.44 350.52 198.47 338.75 190.25 C 326.97 182.04 308.33 179.46 295.03 184.02 C 281.72 188.59 271.04 199.20 271.01 213.99 C 270.98 228.78 290.85 237.62 300.22 223.22 C 309.60 208.83 278.28 200.40 292.77 189.77 C 307.26 179.15 321.45 193.64 322.00 208.00 Z"/>
</g>
<g fill="None" fill-opacity="0.0" stroke="#707070" stroke-opacity="1.00" stroke-width="0.3"><path d="
M 105.00 185.00 
C 110.77 185.56 117.30 184.25 123.00 185.00 C 128.70 185.75 136.67 183.62 142.00 185.00 C 147.33 186.38 156.70 182.08 161.00 185.00
C 157.91 181.75 146.57 184.56 142.00 184.00 C 137.43 183.44 127.13 183.55 123.00 184.00 C 118.87 184.45 106.59 181.77 105.00 185.00 Z"/>
</g>
<g fill="None" fill-opacity="0.0" stroke="#6F6F6F" stroke-opacity="1.00" stroke-width="0.3"><path d="
M 186.00 185.00 
C 190.83 186.03 197.34 183.63 202.00 185.00 C 206.66 186.37 215.00 182.51 219.00 185.00
C 216.51 182.51 205.47 183.98 202.00 184.00 C 198.53 184.02 187.54 182.28 186.00 185.00 Z"/>
</g>
<g fill="None" fill-opacity="0.0" stroke="#FCFCFC" stroke-opacity="1.00" stroke-width="0.3"><path d="
M 105.00 188.00 
C 108.98 189.16 116.01 186.01 119.00 189.00
C 121.33 206.68 119.33 226.50 120.00 245.00
C 129.00 245.00 138.00 245.00 147.00 245.00
C 147.50 239.06 146.34 231.80 147.00 226.00 C 147.66 220.20 145.73 212.32 147.00 207.00 C 148.27 201.68 144.11 193.13 147.00 189.00
C 149.51 185.42 157.81 190.17 161.00 188.00
C 162.17 186.77 162.20 186.26 161.00 185.00
C 156.70 182.08 147.33 186.38 142.00 185.00 C 136.67 183.62 128.70 185.75 123.00 185.00 C 117.30 184.25 110.77 185.56 105.00 185.00
C 104.85 185.31 104.85 187.69 105.00 188.00 Z"/>
</g>
<g fill="None" fill-opacity="0.0" stroke="#F6F6F6" stroke-opacity="1.00" stroke-width="0.3"><path d="
M 201.00 207.00 
C 202.69 218.85 201.81 232.42 202.00 245.00
C 203.33 245.00 204.67 245.00 206.00 245.00
C 205.27 237.13 206.97 227.71 206.00 220.00 C 205.03 212.29 207.21 203.35 207.70 196.70 C 208.18 190.05 222.40 188.40 219.00 185.00
C 215.00 182.51 206.66 186.37 202.00 185.00 C 197.34 183.63 190.83 186.03 186.00 185.00
C 183.71 189.04 194.50 189.89 196.75 193.25 C 199.00 196.61 200.82 202.32 201.00 207.00 Z"/>
</g>
<g fill="None" fill-opacity="0.0" stroke="#707070" stroke-opacity="1.00" stroke-width="0.3"><path d="
M 119.00 189.00 
C 116.01 186.01 108.98 189.16 105.00 188.00
C 106.78 191.62 116.17 187.02 119.00 189.00 Z"/>
</g>
<g fill="None" fill-opacity="0.0" stroke="#707070" stroke-opacity="1.00" stroke-width="0.3"><path d="
M 147.00 189.00 
C 150.86 187.79 158.11 191.04 161.00 188.00
C 157.81 190.17 149.51 185.42 147.00 189.00 Z"/>
</g>
<g fill="None" fill-opacity="0.0" stroke="#848484" stroke-opacity="1.00" stroke-width="0.3"><path d="
M 202.00 245.00 
C 201.81 232.42 202.69 218.85 201.00 207.00
C 201.20 212.18 200.17 222.34 201.00 227.00 C 201.83 231.66 198.36 242.90 202.00 245.00 Z"/>
</g>
<g fill="None" fill-opacity="0.0" stroke="#636363" stroke-opacity="1.00" stroke-width="0.3"><path d="
M 322.00 216.00 
C 322.25 213.44 322.38 210.68 322.00 208.00
C 322.10 210.66 322.00 213.34 322.00 216.00 Z"/>
</g>
<g fill="None" fill-opacity="0.0" stroke="#CDCDCD" stroke-opacity="1.00" stroke-width="0.3"><path d="
M 141.00 270.00 
C 141.00 265.00 141.00 260.00 141.00 255.00
C 137.71 257.36 136.82 262.23 134.00 265.00
C 130.71 262.64 129.82 257.77 127.00 255.00
C 125.30 258.86 125.40 266.07 127.00 270.00
C 129.25 267.65 127.39 263.17 128.00 260.00
C 130.73 261.92 131.02 266.26 134.00 268.00
C 136.34 265.52 137.65 261.54 140.00 259.00
C 140.55 262.51 138.84 267.24 141.00 270.00 Z"/>
</g>
<g fill="None" fill-opacity="0.0" stroke="#757575" stroke-opacity="1.00" stroke-width="0.3"><path d="
M 141.00 270.00 
C 142.70 266.14 142.60 258.93 141.00 255.00
C 141.00 260.00 141.00 265.00 141.00 270.00 Z"/>
</g>
<g fill="None" fill-opacity="0.0" stroke="#CFCFCF" stroke-opacity="1.00" stroke-width="0.3"><path d="
M 164.00 255.00 
C 164.17 258.51 164.22 262.20 163.00 265.00
C 156.92 275.48 153.69 260.35 154.00 255.00
C 152.13 259.71 151.28 269.78 158.99 269.99 C 166.70 270.20 165.92 259.85 164.00 255.00 Z"/>
</g>
<g fill="None" fill-opacity="0.0" stroke="#5F5F5F" stroke-opacity="1.00" stroke-width="0.3"><path d="
M 163.00 265.00 
C 164.22 262.20 164.17 258.51 164.00 255.00
C 161.57 257.30 163.85 261.90 163.00 265.00 Z"/>
</g>
<g fill="None" fill-opacity="0.0" stroke="#C1C1C1" stroke-opacity="1.00" stroke-width="0.3"><path d="
M 185.00 257.00 
C 182.06 249.61 169.15 260.63 178.32 262.68 C 187.49 264.73 181.79 271.90 175.00 267.00
C 175.38 275.77 192.46 266.13 184.07 262.93 C 175.69 259.73 176.78 256.84 185.00 257.00 Z"/>
</g>
<g fill="None" fill-opacity="0.0" stroke="#C2C2C2" stroke-opacity="1.00" stroke-width="0.3"><path d="
M 197.00 270.00 
C 198.70 266.14 198.60 258.93 197.00 255.00
C 195.30 258.86 195.40 266.07 197.00 270.00 Z"/>
</g>
<g fill="None" fill-opacity="0.0" stroke="#C8C8C8" stroke-opacity="1.00" stroke-width="0.3"><path d="
M 221.00 257.00 
C 215.76 252.44 207.77 256.41 208.01 262.99 C 208.25 269.57 217.52 273.13 221.00 267.00
C 216.33 269.07 210.73 270.03 210.00 263.00 C 209.28 255.98 216.98 257.07 221.00 257.00 Z"/>
</g>
<g fill="None" fill-opacity="0.0" stroke="#CBCBCB" stroke-opacity="1.00" stroke-width="0.3"><path d="
M 255.00 257.00 
C 249.96 251.44 240.06 257.63 242.23 264.77 C 244.40 271.91 257.76 272.13 255.00 263.00
C 255.46 268.21 246.59 271.95 244.00 265.00 C 241.42 258.06 250.94 255.83 255.00 257.00 Z"/>
</g>
<g fill="None" fill-opacity="0.0" stroke="#C9C9C9" stroke-opacity="1.00" stroke-width="0.3"><path d="
M 275.00 264.00 
C 282.96 259.96 272.05 252.02 266.00 255.00
C 266.00 260.00 266.00 265.00 266.00 270.00
C 268.71 269.35 267.84 263.60 271.92 265.08 C 275.99 266.57 273.52 269.80 278.00 270.00
C 276.97 268.04 274.95 266.40 275.00 264.00
M 268.00 264.00 
C 265.41 259.12 271.17 253.96 275.22 257.78 C 279.28 261.60 271.13 265.89 268.00 264.00 Z"/>
</g>
<g fill="None" fill-opacity="0.0" stroke="#CCCCCC" stroke-opacity="1.00" stroke-width="0.3"><path d="
M 297.00 255.00 
C 287.82 252.67 282.45 266.16 292.00 270.00 C 301.55 273.84 306.42 257.39 297.00 255.00
M 298.00 257.00 
C 303.81 259.44 299.62 271.42 292.78 268.22 C 285.93 265.02 289.27 253.33 298.00 257.00 Z"/>
</g>
<g fill="None" fill-opacity="0.0" stroke="#737373" stroke-opacity="1.00" stroke-width="0.3"><path d="
M 313.00 265.00 
C 312.45 261.76 313.41 258.26 313.00 255.00
C 310.70 257.39 312.24 262.48 313.00 265.00 Z"/>
</g>
<g fill="None" fill-opacity="0.0" stroke="#CECECE" stroke-opacity="1.00" stroke-width="0.3"><path d="
M 313.00 265.00 
C 316.36 278.21 331.24 263.11 324.00 255.00
C 321.57 258.30 325.36 269.45 318.08 268.92 C 310.79 268.40 316.19 258.24 313.00 255.00
C 313.41 258.26 312.45 261.76 313.00 265.00 Z"/>
</g>
<g fill="None" fill-opacity="0.0" stroke="#AFAFAF" stroke-opacity="1.00" stroke-width="0.3"><path d="
M 336.00 256.00 
C 335.98 256.05 336.74 256.88 337.00 257.00
C 337.41 257.19 338.00 257.00 338.00 257.00
C 339.26 257.00 341.87 257.51 343.00 257.00
C 343.26 256.88 344.00 256.00 344.00 256.00
C 343.17 254.34 336.84 254.33 336.00 256.00 Z"/>
</g>
<g fill="None" fill-opacity="0.0" stroke="#DEDEDE" stroke-opacity="1.00" stroke-width="0.3"><path d="
M 344.00 256.00 
C 344.00 256.00 343.26 256.88 343.00 257.00
C 347.36 261.10 343.20 267.53 338.00 264.00
C 336.19 262.77 337.13 259.04 337.00 257.00
C 336.74 256.88 335.98 256.05 336.00 256.00
C 336.00 260.67 336.00 265.33 336.00 270.00
C 337.59 266.13 340.25 265.29 344.75 264.75 C 349.25 264.22 347.44 255.61 344.00 256.00 Z"/>
</g>
<g fill="None" fill-opacity="0.0" stroke="#000000" stroke-opacity="1.00" stroke-width="0.3"><path d="
M 268.00 264.00 
C 271.13 265.89 279.28 261.60 275.22 257.78 C 271.17 253.96 265.41 259.12 268.00 264.00 Z"/>
</g>
<g fill="None" fill-opacity="0.0" stroke="#000000" stroke-opacity="1.00" stroke-width="0.3"><path d="
M 298.00 257.00 
C 289.27 253.33 285.93 265.02 292.78 268.22 C 299.62 271.42 303.81 259.44 298.00 257.00 Z"/>
</g>
<g fill="None" fill-opacity="0.0" stroke="#747474" stroke-opacity="1.00" stroke-width="0.3"><path d="
M 338.00 264.00 
C 337.77 261.70 338.31 259.29 338.00 257.00
C 338.00 257.00 337.41 257.19 337.00 257.00
C 337.13 259.04 336.19 262.77 338.00 264.00 Z"/>
</g>
<g fill="None" fill-opacity="0.0" stroke="#000000" stroke-opacity="1.00" stroke-width="0.3"><path d="
M 338.00 264.00 
C 343.20 267.53 347.36 261.10 343.00 257.00
C 341.87 257.51 339.26 257.00 338.00 257.00
C 338.31 259.29 337.77 261.70 338.00 264.00 Z"/>
</g>
<g fill="None" fill-opacity="0.0" stroke="#F5F5F5" stroke-opacity="1.00" stroke-width="0.3"><path d="
M 161.00 302.00 
C 163.67 302.00 166.33 302.05 169.00 302.00
C 183.76 302.38 199.43 293.51 204.00 279.00
C 197.46 278.28 196.14 285.57 191.25 289.25 C 186.35 292.93 181.19 294.69 175.00 295.00
C 172.47 295.41 170.45 295.35 168.00 295.00
C 158.40 295.87 148.47 288.51 147.00 279.00
C 138.67 279.00 130.33 279.00 122.00 279.00
C 125.15 296.25 145.65 302.00 161.00 302.00 Z"/>
</g>
<g fill="None" fill-opacity="0.0" stroke="#F4F4F4" stroke-opacity="1.00" stroke-width="0.3"><path d="
M 253.00 308.00 
C 246.27 301.76 252.65 287.55 249.00 279.00
C 245.01 286.86 252.19 301.48 245.00 307.00
C 246.70 309.19 250.48 307.44 253.00 308.00 Z"/>
</g>
<g fill="None" fill-opacity="0.0" stroke="#FBFBFB" stroke-opacity="1.00" stroke-width="0.3"><path d="
M 269.00 289.00 
C 267.99 292.37 269.76 296.56 269.00 300.00
C 296.67 300.00 324.33 300.00 352.00 300.00
C 352.00 293.00 352.00 286.00 352.00 279.00
C 337.81 279.47 318.70 278.38 305.00 279.00 C 291.30 279.62 275.77 274.53 269.00 289.00 Z"/>
</g>
<g fill="None" fill-opacity="0.0" stroke="#6C6C6C" stroke-opacity="1.00" stroke-width="0.3"><path d="
M 269.00 300.00 
C 269.76 296.56 267.99 292.37 269.00 289.00
C 268.09 290.94 266.53 298.27 269.00 300.00 Z"/>
</g>
<g fill="None" fill-opacity="0.0" stroke="#787878" stroke-opacity="1.00" stroke-width="0.3"><path d="
M 175.00 295.00 
C 172.70 295.11 170.31 295.08 168.00 295.00
C 170.45 295.35 172.47 295.41 175.00 295.00 Z"/>
</g>
<g fill="None" fill-opacity="0.0" stroke="#686868" stroke-opacity="1.00" stroke-width="0.3"><path d="
M 169.00 302.00 
C 166.33 302.05 163.67 302.00 161.00 302.00
C 163.51 302.24 166.40 302.31 169.00 302.00 Z"/>
</g>
<g fill="#000000" fill-opacity="1.00" stroke="None">
<path d="
M 0.00 500.00 
L 500.00 500.00
L 500.00 0.00
L 0.00 0.00
L 0.00 500.00
M 253.00 182.00 
C 247.16 189.06 251.00 201.70 250.00 212.00 C 249.00 222.30 251.58 235.39 249.00 245.00
C 246.39 235.41 249.05 223.29 248.00 213.00 C 246.95 202.71 250.91 189.15 245.00 182.00
C 247.67 182.00 250.33 182.00 253.00 182.00
M 322.00 216.00 
C 322.00 213.34 322.10 210.66 322.00 208.00
C 321.45 193.64 307.26 179.15 292.77 189.77 C 278.28 200.40 309.60 208.83 300.22 223.22 C 290.85 237.62 270.98 228.78 271.01 213.99 C 271.04 199.20 281.72 188.59 295.03 184.02 C 308.33 179.46 326.97 182.04 338.75 190.25 C 350.52 198.47 355.77 214.44 348.69 227.69 C 341.61 240.95 327.38 248.31 312.00 245.00
C 318.14 236.55 322.47 226.78 322.00 216.00
M 161.00 185.00 
C 162.20 186.26 162.17 186.77 161.00 188.00
C 158.11 191.04 150.86 187.79 147.00 189.00
C 144.11 193.13 148.27 201.68 147.00 207.00 C 145.73 212.32 147.66 220.20 147.00 226.00 C 146.34 231.80 147.50 239.06 147.00 245.00
C 138.00 245.00 129.00 245.00 120.00 245.00
C 119.33 226.50 121.33 206.68 119.00 189.00
C 116.17 187.02 106.78 191.62 105.00 188.00
C 104.85 187.69 104.85 185.31 105.00 185.00
C 106.59 181.77 118.87 184.45 123.00 184.00 C 127.13 183.55 137.43 183.44 142.00 184.00 C 146.57 184.56 157.91 181.75 161.00 185.00
M 219.00 185.00 
C 222.40 188.40 208.18 190.05 207.70 196.70 C 207.21 203.35 205.03 212.29 206.00 220.00 C 206.97 227.71 205.27 237.13 206.00 245.00
C 204.67 245.00 203.33 245.00 202.00 245.00
C 198.36 242.90 201.83 231.66 201.00 227.00 C 200.17 222.34 201.20 212.18 201.00 207.00
C 200.82 202.32 199.00 196.61 196.75 193.25 C 194.50 189.89 183.71 189.04 186.00 185.00
C 187.54 182.28 198.53 184.02 202.00 184.00 C 205.47 183.98 216.51 182.51 219.00 185.00
M 141.00 255.00 
C 142.60 258.93 142.70 266.14 141.00 270.00
C 138.84 267.24 140.55 262.51 140.00 259.00
C 137.65 261.54 136.34 265.52 134.00 268.00
C 131.02 266.26 130.73 261.92 128.00 260.00
C 127.39 263.17 129.25 267.65 127.00 270.00
C 125.40 266.07 125.30 258.86 127.00 255.00
C 129.82 257.77 130.71 262.64 134.00 265.00
C 136.82 262.23 137.71 257.36 141.00 255.00
M 163.00 265.00 
C 163.85 261.90 161.57 257.30 164.00 255.00
C 165.92 259.85 166.70 270.20 158.99 269.99 C 151.28 269.78 152.13 259.71 154.00 255.00
C 153.69 260.35 156.92 275.48 163.00 265.00
M 185.00 257.00 
C 176.78 256.84 175.69 259.73 184.07 262.93 C 192.46 266.13 175.38 275.77 175.00 267.00
C 181.79 271.90 187.49 264.73 178.32 262.68 C 169.15 260.63 182.06 249.61 185.00 257.00
M 197.00 270.00 
C 195.40 266.07 195.30 258.86 197.00 255.00
C 198.60 258.93 198.70 266.14 197.00 270.00
M 221.00 257.00 
C 216.98 257.07 209.28 255.98 210.00 263.00 C 210.73 270.03 216.33 269.07 221.00 267.00
C 217.52 273.13 208.25 269.57 208.01 262.99 C 207.77 256.41 215.76 252.44 221.00 257.00
M 255.00 257.00 
C 250.94 255.83 241.42 258.06 244.00 265.00 C 246.59 271.95 255.46 268.21 255.00 263.00
C 257.76 272.13 244.40 271.91 242.23 264.77 C 240.06 257.63 249.96 251.44 255.00 257.00
M 275.00 264.00 
C 274.95 266.40 276.97 268.04 278.00 270.00
C 273.52 269.80 275.99 266.57 271.92 265.08 C 267.84 263.60 268.71 269.35 266.00 270.00
C 266.00 265.00 266.00 260.00 266.00 255.00
C 272.05 252.02 282.96 259.96 275.00 264.00
M 297.00 255.00 
C 306.42 257.39 301.55 273.84 292.00 270.00 C 282.45 266.16 287.82 252.67 297.00 255.00
M 313.00 265.00 
C 312.24 262.48 310.70 257.39 313.00 255.00
C 316.19 258.24 310.79 268.40 318.08 268.92 C 325.36 269.45 321.57 258.30 324.00 255.00
C 331.24 263.11 316.36 278.21 313.00 265.00
M 344.00 256.00 
C 347.44 255.61 349.25 264.22 344.75 264.75 C 340.25 265.29 337.59 266.13 336.00 270.00
C 336.00 265.33 336.00 260.67 336.00 256.00
C 336.84 254.33 343.17 254.34 344.00 256.00
M 168.00 295.00 
C 170.31 295.08 172.70 295.11 175.00 295.00
C 181.19 294.69 186.35 292.93 191.25 289.25 C 196.14 285.57 197.46 278.28 204.00 279.00
C 199.43 293.51 183.76 302.38 169.00 302.00
C 166.40 302.31 163.51 302.24 161.00 302.00
C 145.65 302.00 125.15 296.25 122.00 279.00
C 130.33 279.00 138.67 279.00 147.00 279.00
C 148.47 288.51 158.40 295.87 168.00 295.00
M 253.00 308.00 
C 250.48 307.44 246.70 309.19 245.00 307.00
C 252.19 301.48 245.01 286.86 249.00 279.00
C 252.65 287.55 246.27 301.76 253.00 308.00
M 269.00 300.00 
C 266.53 298.27 268.09 290.94 269.00 289.00
C 275.77 274.53 291.30 279.62 305.00 279.00 C 318.70 278.38 337.81 279.47 352.00 279.00
C 352.00 286.00 352.00 293.00 352.00 300.00
C 324.33 300.00 296.67 300.00 269.00 300.00 Z"/>
</g>
<g fill="#F8F8F8" fill-opacity="1.00" stroke="None">
<path d="
M 253.00 182.00 
C 250.33 182.00 247.67 182.00 245.00 182.00
C 250.91 189.15 246.95 202.71 248.00 213.00 C 249.05 223.29 246.39 235.41 249.00 245.00
C 251.58 235.39 249.00 222.30 250.00 212.00 C 251.00 201.70 247.16 189.06 253.00 182.00 Z"/>
</g>
<g fill="#F9F9F9" fill-opacity="1.00" stroke="None">
<path d="
M 322.00 208.00 
C 322.38 210.68 322.25 213.44 322.00 216.00
C 322.47 226.78 318.14 236.55 312.00 245.00
C 327.38 248.31 341.61 240.95 348.69 227.69 C 355.77 214.44 350.52 198.47 338.75 190.25 C 326.97 182.04 308.33 179.46 295.03 184.02 C 281.72 188.59 271.04 199.20 271.01 213.99 C 270.98 228.78 290.85 237.62 300.22 223.22 C 309.60 208.83 278.28 200.40 292.77 189.77 C 307.26 179.15 321.45 193.64 322.00 208.00 Z"/>
</g>
<g fill="#707070" fill-opacity="1.00" stroke="None">
<path d="
M 105.00 185.00 
C 110.77 185.56 117.30 184.25 123.00 185.00 C 128.70 185.75 136.67 183.62 142.00 185.00 C 147.33 186.38 156.70 182.08 161.00 185.00
C 157.91 181.75 146.57 184.56 142.00 184.00 C 137.43 183.44 127.13 183.55 123.00 184.00 C 118.87 184.45 106.59 181.77 105.00 185.00 Z"/>
</g>
<g fill="#6F6F6F" fill-opacity="1.00" stroke="None">
<path d="
M 186.00 185.00 
C 190.83 186.03 197.34 183.63 202.00 185.00 C 206.66 186.37 215.00 182.51 219.00 185.00
C 216.51 182.51 205.47 183.98 202.00 184.00 C 198.53 184.02 187.54 182.28 186.00 185.00 Z"/>
</g>
<g fill="#FCFCFC" fill-opacity="1.00" stroke="None">
<path d="
M 105.00 188.00 
C 108.98 189.16 116.01 186.01 119.00 189.00
C 121.33 206.68 119.33 226.50 120.00 245.00
C 129.00 245.00 138.00 245.00 147.00 245.00
C 147.50 239.06 146.34 231.80 147.00 226.00 C 147.66 220.20 145.73 212.32 147.00 207.00 C 148.27 201.68 144.11 193.13 147.00 189.00
C 149.51 185.42 157.81 190.17 161.00 188.00
C 162.17 186.77 162.20 186.26 161.00 185.00
C 156.70 182.08 147.33 186.38 142.00 185.00 C 136.67 183.62 128.70 185.75 123.00 185.00 C 117.30 184.25 110.77 185.56 105.00 185.00
C 104.85 185.31 104.85 187.69 105.00 188.00 Z"/>
</g>
<g fill="#F6F6F6" fill-opacity="1.00" stroke="None">
<path d="
M 201.00 207.00 
C 202.69 218.85 201.81 232.42 202.00 245.00
C 203.33 245.00 204.67 245.00 206.00 245.00
C 205.27 237.13 206.97 227.71 206.00 220.00 C 205.03 212.29 207.21 203.35 207.70 196.70 C 208.18 190.05 222.40 188.40 219.00 185.00
C 215.00 182.51 206.66 186.37 202.00 185.00 C 197.34 183.63 190.83 186.03 186.00 185.00
C 183.71 189.04 194.50 189.89 196.75 193.25 C 199.00 196.61 200.82 202.32 201.00 207.00 Z"/>
</g>
<g fill="#707070" fill-opacity="1.00" stroke="None">
<path d="
M 119.00 189.00 
C 116.01 186.01 108.98 189.16 105.00 188.00
C 106.78 191.62 116.17 187.02 119.00 189.00 Z"/>
</g>
<g fill="#707070" fill-opacity="1.00" stroke="None">
<path d="
M 147.00 189.00 
C 150.86 187.79 158.11 191.04 161.00 188.00
C 157.81 190.17 149.51 185.42 147.00 189.00 Z"/>
</g>
<g fill="#848484" fill-opacity="1.00" stroke="None">
<path d="
M 202.00 245.00 
C 201.81 232.42 202.69 218.85 201.00 207.00
C 201.20 212.18 200.17 222.34 201.00 227.00 C 201.83 231.66 198.36 242.90 202.00 245.00 Z"/>
</g>
<g fill="#636363" fill-opacity="1.00" stroke="None">
<path d="
M 322.00 216.00 
C 322.25 213.44 322.38 210.68 322.00 208.00
C 322.10 210.66 322.00 213.34 322.00 216.00 Z"/>
</g>
<g fill="#CDCDCD" fill-opacity="1.00" stroke="None">
<path d="
M 141.00 270.00 
C 141.00 265.00 141.00 260.00 141.00 255.00
C 137.71 257.36 136.82 262.23 134.00 265.00
C 130.71 262.64 129.82 257.77 127.00 255.00
C 125.30 258.86 125.40 266.07 127.00 270.00
C 129.25 267.65 127.39 263.17 128.00 260.00
C 130.73 261.92 131.02 266.26 134.00 268.00
C 136.34 265.52 137.65 261.54 140.00 259.00
C 140.55 262.51 138.84 267.24 141.00 270.00 Z"/>
</g>
<g fill="#757575" fill-opacity="1.00" stroke="None">
<path d="
M 141.00 270.00 
C 142.70 266.14 142.60 258.93 141.00 255.00
C 141.00 260.00 141.00 265.00 141.00 270.00 Z"/>
</g>
<g fill="#CFCFCF" fill-opacity="1.00" stroke="None">
<path d="
M 164.00 255.00 
C 164.17 258.51 164.22 262.20 163.00 265.00
C 156.92 275.48 153.69 260.35 154.00 255.00
C 152.13 259.71 151.28 269.78 158.99 269.99 C 166.70 270.20 165.92 259.85 164.00 255.00 Z"/>
</g>
<g fill="#5F5F5F" fill-opacity="1.00" stroke="None">
<path d="
M 163.00 265.00 
C 164.22 262.20 164.17 258.51 164.00 255.00
C 161.57 257.30 163.85 261.90 163.00 265.00 Z"/>
</g>
<g fill="#C1C1C1" fill-opacity="1.00" stroke="None">
<path d="
M 185.00 257.00 
C 182.06 249.61 169.15 260.63 178.32 262.68 C 187.49 264.73 181.79 271.90 175.00 267.00
C 175.38 275.77 192.46 266.13 184.07 262.93 C 175.69 259.73 176.78 256.84 185.00 257.00 Z"/>
</g>
<g fill="#C2C2C2" fill-opacity="1.00" stroke="None">
<path d="
M 197.00 270.00 
C 198.70 266.14 198.60 258.93 197.00 255.00
C 195.30 258.86 195.40 266.07 197.00 270.00 Z"/>
</g>
<g fill="#C8C8C8" fill-opacity="1.00" stroke="None">
<path d="
M 221.00 257.00 
C 215.76 252.44 207.77 256.41 208.01 262.99 C 208.25 269.57 217.52 273.13 221.00 267.00
C 216.33 269.07 210.73 270.03 210.00 263.00 C 209.28 255.98 216.98 257.07 221.00 257.00 Z"/>
</g>
<g fill="#CBCBCB" fill-opacity="1.00" stroke="None">
<path d="
M 255.00 257.00 
C 249.96 251.44 240.06 257.63 242.23 264.77 C 244.40 271.91 257.76 272.13 255.00 263.00
C 255.46 268.21 246.59 271.95 244.00 265.00 C 241.42 258.06 250.94 255.83 255.00 257.00 Z"/>
</g>
<g fill="#C9C9C9" fill-opacity="1.00" stroke="None">
<path d="
M 275.00 264.00 
C 282.96 259.96 272.05 252.02 266.00 255.00
C 266.00 260.00 266.00 265.00 266.00 270.00
C 268.71 269.35 267.84 263.60 271.92 265.08 C 275.99 266.57 273.52 269.80 278.00 270.00
C 276.97 268.04 274.95 266.40 275.00 264.00
M 268.00 264.00 
C 265.41 259.12 271.17 253.96 275.22 257.78 C 279.28 261.60 271.13 265.89 268.00 264.00 Z"/>
</g>
<g fill="#CCCCCC" fill-opacity="1.00" stroke="None">
<path d="
M 297.00 255.00 
C 287.82 252.67 282.45 266.16 292.00 270.00 C 301.55 273.84 306.42 257.39 297.00 255.00
M 298.00 257.00 
C 303.81 259.44 299.62 271.42 292.78 268.22 C 285.93 265.02 289.27 253.33 298.00 257.00 Z"/>
</g>
<g fill="#737373" fill-opacity="1.00" stroke="None">
<path d="
M 313.00 265.00 
C 312.45 261.76 313.41 258.26 313.00 255.00
C 310.70 257.39 312.24 262.48 313.00 265.00 Z"/>
</g>
<g fill="#CECECE" fill-opacity="1.00" stroke="None">
<path d="
M 313.00 265.00 
C 316.36 278.21 331.24 263.11 324.00 255.00
C 321.57 258.30 325.36 269.45 318.08 268.92 C 310.79 268.40 316.19 258.24 313.00 255.00
C 313.41 258.26 312.45 261.76 313.00 265.00 Z"/>
</g>
<g fill="#AFAFAF" fill-opacity="1.00" stroke="None">
<path d="
M 336.00 256.00 
C 335.98 256.05 336.74 256.88 337.00 257.00
C 337.41 257.19 338.00 257.00 338.00 257.00
C 339.26 257.00 341.87 257.51 343.00 257.00
C 343.26 256.88 344.00 256.00 344.00 256.00
C 343.17 254.34 336.84 254.33 336.00 256.00 Z"/>
</g>
<g fill="#DEDEDE" fill-opacity="1.00" stroke="None">
<path d="
M 344.00 256.00 
C 344.00 256.00 343.26 256.88 343.00 257.00
C 347.36 261.10 343.20 267.53 338.00 264.00
C 336.19 262.77 337.13 259.04 337.00 257.00
C 336.74 256.88 335.98 256.05 336.00 256.00
C 336.00 260.67 336.00 265.33 336.00 270.00
C 337.59 266.13 340.25 265.29 344.75 264.75 C 349.25 264.22 347.44 255.61 344.00 256.00 Z"/>
</g>
<g fill="#000000" fill-opacity="1.00" stroke="None">
<path d="
M 268.00 264.00 
C 271.13 265.89 279.28 261.60 275.22 257.78 C 271.17 253.96 265.41 259.12 268.00 264.00 Z"/>
</g>
<g fill="#000000" fill-opacity="1.00" stroke="None">
<path d="
M 298.00 257.00 
C 289.27 253.33 285.93 265.02 292.78 268.22 C 299.62 271.42 303.81 259.44 298.00 257.00 Z"/>
</g>
<g fill="#747474" fill-opacity="1.00" stroke="None">
<path d="
M 338.00 264.00 
C 337.77 261.70 338.31 259.29 338.00 257.00
C 338.00 257.00 337.41 257.19 337.00 257.00
C 337.13 259.04 336.19 262.77 338.00 264.00 Z"/>
</g>
<g fill="#000000" fill-opacity="1.00" stroke="None">
<path d="
M 338.00 264.00 
C 343.20 267.53 347.36 261.10 343.00 257.00
C 341.87 257.51 339.26 257.00 338.00 257.00
C 338.31 259.29 337.77 261.70 338.00 264.00 Z"/>
</g>
<g fill="#F5F5F5" fill-opacity="1.00" stroke="None">
<path d="
M 161.00 302.00 
C 163.67 302.00 166.33 302.05 169.00 302.00
C 183.76 302.38 199.43 293.51 204.00 279.00
C 197.46 278.28 196.14 285.57 191.25 289.25 C 186.35 292.93 181.19 294.69 175.00 295.00
C 172.47 295.41 170.45 295.35 168.00 295.00
C 158.40 295.87 148.47 288.51 147.00 279.00
C 138.67 279.00 130.33 279.00 122.00 279.00
C 125.15 296.25 145.65 302.00 161.00 302.00 Z"/>
</g>
<g fill="#F4F4F4" fill-opacity="1.00" stroke="None">
<path d="
M 253.00 308.00 
C 246.27 301.76 252.65 287.55 249.00 279.00
C 245.01 286.86 252.19 301.48 245.00 307.00
C 246.70 309.19 250.48 307.44 253.00 308.00 Z"/>
</g>
<g fill="#FBFBFB" fill-opacity="1.00" stroke="None">
<path d="
M 269.00 289.00 
C 267.99 292.37 269.76 296.56 269.00 300.00
C 296.67 300.00 324.33 300.00 352.00 300.00
C 352.00 293.00 352.00 286.00 352.00 279.00
C 337.81 279.47 318.70 278.38 305.00 279.00 C 291.30 279.62 275.77 274.53 269.00 289.00 Z"/>
</g>
<g fill="#6C6C6C" fill-opacity="1.00" stroke="None">
<path d="
M 269.00 300.00 
C 269.76 296.56 267.99 292.37 269.00 289.00
C 268.09 290.94 266.53 298.27 269.00 300.00 Z"/>
</g>
<g fill="#787878" fill-opacity="1.00" stroke="None">
<path d="
M 175.00 295.00 
C 172.70 295.11 170.31 295.08 168.00 295.00
C 170.45 295.35 172.47 295.41 175.00 295.00 Z"/>
</g>
<g fill="#686868" fill-opacity="1.00" stroke="None">
<path d="
M 169.00 302.00 
C 166.33 302.05 163.67 302.00 161.00 302.00
C 163.51 302.24 166.40 302.31 169.00 302.00 Z"/>
</g>
</svg>